<svg width="40" height="40" viewBox="0 0 40 40" fill="none" xmlns="http://www.w3.org/2000/svg">
<path d="M8.04443 7.17521L18.4956 3.63673" stroke="#B3B3B3" stroke-width="2" stroke-miterlimit="10"/>
<path d="M18.7359 6.45616L7.11633 24.2398" stroke="#B3B3B3" stroke-width="2" stroke-miterlimit="10"/>
<path d="M5.71692 16.2851L19.6533 29.7808" stroke="#B3B3B3" stroke-width="2" stroke-miterlimit="10"/>
<path d="M22.3489 28.1299V16.7001" stroke="#B3B3B3" stroke-width="2" stroke-miterlimit="10"/>
<path d="M17.0191 33.3687L9.23328 31.2989" stroke="#B3B3B3" stroke-width="2" stroke-miterlimit="10"/>
<path d="M27.7537 30.3946L32.9592 23.042" stroke="#B3B3B3" stroke-width="2" stroke-miterlimit="10"/>
<path d="M34.3502 16.1445L25.3698 4.94706" stroke="#B3B3B3" stroke-width="2" stroke-miterlimit="10"/>
<path d="M9.88733 13.2303L18.7159 17.6606" stroke="#B3B3B3" stroke-width="2" stroke-miterlimit="10"/>
<path d="M25.1083 19.4613L32.3058 18.8177" stroke="#B3B3B3" stroke-width="2" stroke-miterlimit="10"/>
<path d="M22.088 8.62346C24.3854 8.62346 26.2478 6.69303 26.2478 4.31173C26.2478 1.93043 24.3854 0 22.088 0C19.7906 0 17.9282 1.93043 17.9282 4.31173C17.9282 6.69303 19.7906 8.62346 22.088 8.62346Z" fill="#FF9D0A"/>
<path d="M22.2148 22.3624C24.4423 22.3624 26.248 20.4908 26.248 18.182C26.248 15.8731 24.4423 14.0015 22.2148 14.0015C19.9873 14.0015 18.1816 15.8731 18.1816 18.182C18.1816 20.4908 19.9873 22.3624 22.2148 22.3624Z" fill="#29ABE2"/>
<path d="M22.7222 40C26.1362 40 28.9038 37.1313 28.9038 33.5926C28.9038 30.054 26.1362 27.1853 22.7222 27.1853C19.3082 27.1853 16.5406 30.054 16.5406 33.5926C16.5406 37.1313 19.3082 40 22.7222 40Z" fill="#084387"/>
<path d="M35.6102 24.4707C38.0346 24.4707 40 22.4335 40 19.9206C40 17.4076 38.0346 15.3704 35.6102 15.3704C33.1857 15.3704 31.2203 17.4076 31.2203 19.9206C31.2203 22.4335 33.1857 24.4707 35.6102 24.4707Z" fill="#0B6AB0"/>
<path d="M5.30675 16.8616C8.23759 16.8616 10.6135 14.3989 10.6135 11.3611C10.6135 8.32318 8.23759 5.8605 5.30675 5.8605C2.37591 5.8605 0 8.32318 0 11.3611C0 14.3989 2.37591 16.8616 5.30675 16.8616Z" fill="#CE4912"/>
<path d="M5.30675 34.0431C8.23759 34.0431 10.6135 31.5804 10.6135 28.5426C10.6135 25.5047 8.23759 23.042 5.30675 23.042C2.37591 23.042 0 25.5047 0 28.5426C0 31.5804 2.37591 34.0431 5.30675 34.0431Z" fill="#A02B4F"/>
</svg>
