<svg xmlns="http://www.w3.org/2000/svg" xmlns:xlink="http://www.w3.org/1999/xlink" viewBox="0 0 2611.27 1341.56"><defs><style>.cls-1{isolation:isolate;}.cls-2{fill:url(#linear-gradient);}.cls-3{fill:url(#linear-gradient-2);}.cls-100,.cls-102,.cls-103,.cls-105,.cls-106,.cls-107,.cls-109,.cls-110,.cls-112,.cls-113,.cls-115,.cls-116,.cls-117,.cls-19,.cls-23,.cls-27,.cls-29,.cls-30,.cls-32,.cls-34,.cls-35,.cls-36,.cls-37,.cls-39,.cls-4,.cls-41,.cls-53,.cls-54,.cls-59,.cls-6,.cls-63,.cls-67,.cls-74,.cls-83,.cls-85,.cls-86,.cls-87,.cls-88,.cls-89,.cls-90,.cls-92,.cls-93,.cls-95,.cls-96,.cls-98,.cls-99{mix-blend-mode:multiply;}.cls-4{fill:url(#linear-gradient-3);}.cls-5{fill:#fff;}.cls-6{fill:url(#linear-gradient-4);}.cls-7{fill:#ffa466;}.cls-8{fill:url(#linear-gradient-5);}.cls-9{fill:#ffb680;}.cls-10{fill:#050505;}.cls-11{fill:url(#linear-gradient-6);}.cls-12{fill:url(#linear-gradient-7);}.cls-13{fill:url(#linear-gradient-8);}.cls-14{fill:url(#linear-gradient-9);}.cls-15{fill:url(#linear-gradient-10);}.cls-16{fill:url(#linear-gradient-11);}.cls-17{fill:url(#linear-gradient-12);}.cls-18{fill:#00a1cc;}.cls-20{fill:url(#linear-gradient-13);}.cls-21{fill:url(#linear-gradient-14);}.cls-22{fill:url(#linear-gradient-15);}.cls-23{fill:url(#linear-gradient-16);}.cls-24{fill:url(#linear-gradient-18);}.cls-25{fill:url(#linear-gradient-19);}.cls-26{fill:url(#linear-gradient-20);}.cls-27{fill:url(#linear-gradient-21);}.cls-28{fill:url(#linear-gradient-23);}.cls-29{fill:url(#linear-gradient-24);}.cls-30{fill:url(#linear-gradient-25);}.cls-31{fill:#6595ea;}.cls-32{fill:url(#linear-gradient-26);}.cls-33,.cls-92{fill:#8facea;}.cls-34{fill:url(#linear-gradient-27);}.cls-35{fill:url(#linear-gradient-28);}.cls-36{fill:url(#linear-gradient-29);}.cls-37{fill:url(#linear-gradient-30);}.cls-38{fill:#f5f5f5;}.cls-39{fill:url(#linear-gradient-32);}.cls-40{fill:url(#linear-gradient-34);}.cls-41{fill:url(#linear-gradient-35);}.cls-42{fill:url(#linear-gradient-36);}.cls-43{fill:url(#linear-gradient-37);}.cls-44{fill:url(#linear-gradient-38);}.cls-45{fill:url(#linear-gradient-39);}.cls-46{fill:url(#linear-gradient-40);}.cls-47{fill:url(#linear-gradient-41);}.cls-48{fill:url(#linear-gradient-42);}.cls-49{fill:url(#linear-gradient-43);}.cls-50{fill:url(#linear-gradient-44);}.cls-51{fill:url(#linear-gradient-45);}.cls-52{fill:url(#linear-gradient-46);}.cls-53{fill:url(#linear-gradient-47);}.cls-54{fill:url(#linear-gradient-48);}.cls-55{fill:url(#linear-gradient-49);}.cls-56{fill:url(#linear-gradient-50);}.cls-57{fill:url(#linear-gradient-51);}.cls-58{fill:url(#linear-gradient-52);}.cls-59{fill:url(#linear-gradient-53);}.cls-60{fill:url(#linear-gradient-54);}.cls-61{fill:url(#linear-gradient-55);}.cls-62{fill:url(#linear-gradient-56);}.cls-63{fill:url(#linear-gradient-57);}.cls-64{fill:url(#linear-gradient-59);}.cls-65{fill:url(#linear-gradient-60);}.cls-66{fill:url(#linear-gradient-61);}.cls-67{fill:url(#linear-gradient-62);}.cls-68{fill:url(#linear-gradient-64);}.cls-69{fill:url(#linear-gradient-65);}.cls-70{fill:url(#linear-gradient-66);}.cls-71{fill:url(#linear-gradient-67);}.cls-72{fill:url(#linear-gradient-68);}.cls-73{fill:url(#linear-gradient-69);}.cls-74{fill:url(#linear-gradient-70);}.cls-75{fill:url(#linear-gradient-71);}.cls-76{fill:url(#linear-gradient-72);}.cls-77{fill:url(#linear-gradient-73);}.cls-78{fill:url(#linear-gradient-74);}.cls-79{fill:url(#linear-gradient-75);}.cls-80{fill:url(#linear-gradient-76);}.cls-81{fill:url(#linear-gradient-77);}.cls-82{fill:url(#linear-gradient-78);}.cls-83{fill:url(#linear-gradient-79);}.cls-84{fill:url(#linear-gradient-80);}.cls-85{fill:url(#linear-gradient-81);}.cls-86{fill:url(#linear-gradient-82);}.cls-87{fill:url(#linear-gradient-83);}.cls-88{fill:url(#linear-gradient-84);}.cls-89{fill:url(#linear-gradient-85);}.cls-90{fill:url(#linear-gradient-87);}.cls-91{fill:url(#linear-gradient-89);}.cls-93{fill:url(#linear-gradient-90);}.cls-94,.cls-95{fill:#d6def5;}.cls-96{fill:url(#linear-gradient-91);}.cls-97,.cls-98{fill:#b6c6ef;}.cls-99{fill:url(#linear-gradient-92);}.cls-100{fill:url(#linear-gradient-93);}.cls-101{fill:#487af7;}.cls-102{fill:url(#linear-gradient-94);}.cls-103{fill:url(#linear-gradient-95);}.cls-104,.cls-105{fill:#52d6ff;}.cls-106{fill:url(#linear-gradient-96);}.cls-107{fill:url(#linear-gradient-97);}.cls-108,.cls-109{fill:#5ec9ea;}.cls-110{fill:url(#linear-gradient-98);}.cls-111,.cls-112{fill:#a6e1ff;}.cls-113{fill:url(#linear-gradient-99);}.cls-114{fill:#3ebedb;}.cls-115{fill:url(#linear-gradient-100);}.cls-116{fill:url(#linear-gradient-101);}.cls-117{fill:url(#linear-gradient-102);}</style><linearGradient id="linear-gradient" x1="1718.68" y1="-20.07" x2="1718.68" y2="1006.54" gradientTransform="translate(99.48)" gradientUnits="userSpaceOnUse"><stop offset="0" stop-color="#2095f9"/><stop offset="0.5" stop-color="#147dfb"/><stop offset="0.99" stop-color="#0b6afc"/></linearGradient><linearGradient id="linear-gradient-2" x1="-4903.6" y1="586.39" x2="-5049.83" y2="452.17" gradientTransform="matrix(-1, 0, 0, 1, -3241.05, 0)" xlink:href="#linear-gradient"/><linearGradient id="linear-gradient-3" x1="-5258.95" y1="361.8" x2="-5038.11" y2="361.8" gradientTransform="matrix(-1, 0, 0, 1, -3241.05, 0)" gradientUnits="userSpaceOnUse"><stop offset="0" stop-color="#a8a8a8"/><stop offset="0.5" stop-color="silver"/><stop offset="0.99" stop-color="#d3d3d3"/></linearGradient><linearGradient id="linear-gradient-4" x1="-5223.14" y1="406.93" x2="-5223.14" y2="463.16" xlink:href="#linear-gradient-3"/><linearGradient id="linear-gradient-5" x1="-3699.14" y1="-6509.89" x2="-3493.14" y2="-6887.89" gradientTransform="matrix(-0.9, -0.43, -0.43, 0.9, -4319.56, -1233.4)" gradientUnits="userSpaceOnUse"><stop offset="0" stop-color="#2095f9"/><stop offset="0.11" stop-color="#1c8bf8"/><stop offset="0.7" stop-color="#0959f6"/><stop offset="0.99" stop-color="#0246f5"/></linearGradient><linearGradient id="linear-gradient-6" x1="2139.85" y1="1257.33" x2="2139.85" y2="806.66" gradientUnits="userSpaceOnUse"><stop offset="0" stop-color="#3e3c9b"/><stop offset="0.2" stop-color="#363487"/><stop offset="0.74" stop-color="#232255"/><stop offset="1" stop-color="#1b1b42"/></linearGradient><linearGradient id="linear-gradient-7" x1="2181.42" y1="1257.33" x2="2181.42" y2="806.66" xlink:href="#linear-gradient-6"/><linearGradient id="linear-gradient-8" x1="2947.13" y1="862.41" x2="2439.12" y2="-165.61" gradientTransform="translate(-294.53 191.51) rotate(6.53)" xlink:href="#linear-gradient-6"/><linearGradient id="linear-gradient-9" x1="2953.77" y1="859.13" x2="2445.77" y2="-168.88" gradientTransform="translate(-294.53 191.51) rotate(6.53)" xlink:href="#linear-gradient-6"/><linearGradient id="linear-gradient-10" x1="2246.82" y1="289.33" x2="2246.82" y2="663.01" gradientTransform="matrix(1, 0, 0, 1, 0, 0)" xlink:href="#linear-gradient-5"/><linearGradient id="linear-gradient-11" x1="2116.02" y1="-28.95" x2="2213.79" y2="244.83" xlink:href="#linear-gradient-6"/><linearGradient id="linear-gradient-12" x1="-2999.6" y1="-5217.52" x2="-2793.61" y2="-5595.5" gradientTransform="matrix(-1, -0.07, -0.07, 1, -3507.05, 18.74)" xlink:href="#linear-gradient-5"/><linearGradient id="linear-gradient-13" x1="1485.94" y1="1082.54" x2="1449.26" y2="1332.55" gradientUnits="userSpaceOnUse"><stop offset="0" stop-color="#00a1cc"/><stop offset="0.37" stop-color="#69c8e1"/><stop offset="0.67" stop-color="#bae6f1"/><stop offset="0.88" stop-color="#ecf8fb"/><stop offset="0.99" stop-color="#fff"/></linearGradient><linearGradient id="linear-gradient-14" x1="1501.66" y1="952.77" x2="1481.66" y2="1079.43" xlink:href="#linear-gradient-13"/><linearGradient id="linear-gradient-15" x1="1525.7" y1="766.42" x2="1499.04" y2="939.08" xlink:href="#linear-gradient-13"/><linearGradient id="linear-gradient-16" x1="1521" y1="725.16" x2="1521" y2="918.53" gradientUnits="userSpaceOnUse"><stop offset="0" stop-color="#b5b5b5"/><stop offset="0.06" stop-color="#bababa"/><stop offset="0.68" stop-color="#ececec"/><stop offset="0.99" stop-color="#fff"/></linearGradient><linearGradient id="linear-gradient-18" x1="-3551.99" y1="1082.54" x2="-3588.66" y2="1332.55" gradientTransform="matrix(-1, 0, 0, 1, -1675.92, 0)" xlink:href="#linear-gradient-13"/><linearGradient id="linear-gradient-19" x1="-3536.27" y1="952.77" x2="-3556.27" y2="1079.43" gradientTransform="matrix(-1, 0, 0, 1, -1675.92, 0)" xlink:href="#linear-gradient-13"/><linearGradient id="linear-gradient-20" x1="-3512.22" y1="766.42" x2="-3538.89" y2="939.08" gradientTransform="matrix(-1, 0, 0, 1, -1675.92, 0)" xlink:href="#linear-gradient-13"/><linearGradient id="linear-gradient-21" x1="-3516.92" y1="725.16" x2="-3516.92" y2="918.53" gradientTransform="matrix(-1, 0, 0, 1, -1675.92, 0)" xlink:href="#linear-gradient-16"/><linearGradient id="linear-gradient-23" x1="905.7" y1="670.68" x2="509.3" y2="670.68" gradientTransform="matrix(1, 0, 0, 1, 0, 0)" xlink:href="#linear-gradient"/><linearGradient id="linear-gradient-24" x1="596.3" y1="670.68" x2="842.58" y2="670.68" gradientTransform="matrix(1, 0, 0, 1, 0, 0)" xlink:href="#linear-gradient-3"/><linearGradient id="linear-gradient-25" x1="644.72" y1="715.8" x2="644.72" y2="772.04" gradientTransform="matrix(1, 0, 0, 1, 0, 0)" xlink:href="#linear-gradient-3"/><linearGradient id="linear-gradient-26" x1="1043.41" y1="553.15" x2="1043.41" y2="959.54" gradientUnits="userSpaceOnUse"><stop offset="0" stop-color="#fff"/><stop offset="0.35" stop-color="#d4dff7"/><stop offset="0.78" stop-color="#a2baee"/><stop offset="1" stop-color="#8facea"/></linearGradient><linearGradient id="linear-gradient-27" x1="1178.52" y1="1450.49" x2="1178.52" y2="1054.42" xlink:href="#linear-gradient-26"/><linearGradient id="linear-gradient-28" x1="1178.52" y1="1135.82" x2="1178.52" y2="899.82" xlink:href="#linear-gradient-26"/><linearGradient id="linear-gradient-29" x1="1178.52" y1="1250.65" x2="1178.52" y2="1383.03" xlink:href="#linear-gradient-26"/><linearGradient id="linear-gradient-30" x1="1067.86" y1="1282.18" x2="1067.86" y2="1345.21" xlink:href="#linear-gradient-26"/><linearGradient id="linear-gradient-32" x1="1289.18" y1="1282.18" x2="1289.18" y2="1345.21" xlink:href="#linear-gradient-26"/><linearGradient id="linear-gradient-34" x1="1178.53" y1="1028.14" x2="1178.53" y2="1498.33" gradientUnits="userSpaceOnUse"><stop offset="0" stop-color="#7495e1"/><stop offset="0.64" stop-color="#496bd1"/><stop offset="1" stop-color="#3658ca"/></linearGradient><linearGradient id="linear-gradient-35" x1="1218.19" y1="1180.03" x2="1004.15" y2="1180.03" gradientUnits="userSpaceOnUse"><stop offset="0" stop-color="#fff"/><stop offset="0.05" stop-color="#fbfcfe"/><stop offset="0.69" stop-color="#c9d5f3"/><stop offset="1" stop-color="#b6c6ef"/></linearGradient><linearGradient id="linear-gradient-36" x1="486.55" y1="964.36" x2="630.23" y2="1006.75" gradientTransform="matrix(-0.62, 0.79, 0.79, 0.62, 847.44, -473.55)" xlink:href="#linear-gradient-6"/><linearGradient id="linear-gradient-37" x1="-60.88" y1="-6669.91" x2="-13.72" y2="-6660.41" gradientTransform="matrix(0.91, -0.41, -0.41, -0.91, -1162.84, -5472.22)" gradientUnits="userSpaceOnUse"><stop offset="0" stop-color="#ffb680"/><stop offset="0.64" stop-color="#ff9953"/><stop offset="0.99" stop-color="#ff8d40"/></linearGradient><linearGradient id="linear-gradient-38" x1="1735.46" y1="1240.89" x2="1458.06" y2="907.48" gradientTransform="matrix(1, 0, 0, 1, 0, 0)" xlink:href="#linear-gradient-5"/><linearGradient id="linear-gradient-39" x1="1672.91" y1="1292.93" x2="1395.57" y2="959.59" gradientTransform="matrix(1, 0, 0, 1, 0, 0)" xlink:href="#linear-gradient-5"/><linearGradient id="linear-gradient-40" x1="1600.33" y1="1246.22" x2="1066.33" y2="640.22" gradientTransform="matrix(1, 0, 0, 1, 0, 0)" xlink:href="#linear-gradient-5"/><linearGradient id="linear-gradient-41" x1="1572.18" y1="1271.04" x2="1038.17" y2="665.03" gradientTransform="matrix(1, 0, 0, 1, 0, 0)" xlink:href="#linear-gradient-5"/><linearGradient id="linear-gradient-42" x1="-9178.68" y1="-1184.93" x2="-9265.99" y2="-904.89" gradientTransform="matrix(-0.92, -0.38, -0.38, 0.92, -7730.08, -1916.84)" xlink:href="#linear-gradient-6"/><linearGradient id="linear-gradient-43" x1="-2571.95" y1="571.14" x2="-2999.95" y2="215.14" gradientTransform="matrix(-1, -0.01, -0.01, 1, -1557.16, -12.39)" gradientUnits="userSpaceOnUse"><stop offset="0" stop-color="#508fea"/><stop offset="0.63" stop-color="#7aa6f6"/><stop offset="1" stop-color="#8db0fc"/></linearGradient><linearGradient id="linear-gradient-44" x1="-2941.93" y1="228.16" x2="-2803.27" y2="438.82" gradientTransform="matrix(-1, -0.01, -0.01, 1, -1557.16, -12.39)" gradientUnits="userSpaceOnUse"><stop offset="0" stop-color="#fff"/><stop offset="0.36" stop-color="#d2dffe"/><stop offset="0.79" stop-color="#a0bdfd"/><stop offset="1" stop-color="#8db0fc"/></linearGradient><linearGradient id="linear-gradient-45" x1="-3029.46" y1="288.83" x2="-3029.46" y2="1315.38" gradientTransform="matrix(-1, 0, 0, 1, -1534.73, 0)" xlink:href="#linear-gradient"/><linearGradient id="linear-gradient-46" x1="-155.45" y1="895.28" x2="-301.68" y2="761.05" gradientTransform="translate(1805.81)" xlink:href="#linear-gradient"/><linearGradient id="linear-gradient-47" x1="-510.8" y1="670.68" x2="-289.96" y2="670.68" gradientTransform="translate(1805.81)" xlink:href="#linear-gradient-3"/><linearGradient id="linear-gradient-48" x1="-474.99" y1="715.83" x2="-474.99" y2="772.01" gradientTransform="translate(1805.81)" xlink:href="#linear-gradient-3"/><linearGradient id="linear-gradient-49" x1="-565.56" y1="1071.94" x2="-421.87" y2="1114.32" gradientTransform="matrix(-0.83, 0.56, 0.56, 0.83, 104.97, -82.08)" xlink:href="#linear-gradient-6"/><linearGradient id="linear-gradient-50" x1="114.99" y1="-6517.19" x2="162.15" y2="-6507.69" gradientTransform="matrix(0.95, -0.32, -0.32, -0.95, -910.82, -5493.49)" xlink:href="#linear-gradient-37"/><linearGradient id="linear-gradient-51" x1="1219.14" y1="391.1" x2="1302.54" y2="582.02" gradientTransform="matrix(1, 0, 0, 1, 0, 0)" xlink:href="#linear-gradient-5"/><linearGradient id="linear-gradient-52" x1="-3934.31" y1="-602.83" x2="-3877.79" y2="-473.44" gradientTransform="matrix(-0.93, -0.38, -0.38, 0.93, -2541.2, -495.98)" xlink:href="#linear-gradient-5"/><linearGradient id="linear-gradient-53" x1="812.41" y1="979.82" x2="812.41" y2="723.35" gradientUnits="userSpaceOnUse"><stop offset="0" stop-color="#fff"/><stop offset="0.37" stop-color="#96deef"/><stop offset="0.68" stop-color="#45c5e3"/><stop offset="0.89" stop-color="#13b5db"/><stop offset="1" stop-color="#00afd8"/></linearGradient><linearGradient id="linear-gradient-54" x1="617.34" y1="1082.54" x2="580.67" y2="1332.55" xlink:href="#linear-gradient-13"/><linearGradient id="linear-gradient-55" x1="633.07" y1="952.77" x2="613.07" y2="1079.43" xlink:href="#linear-gradient-13"/><linearGradient id="linear-gradient-56" x1="657.11" y1="766.42" x2="630.44" y2="939.08" xlink:href="#linear-gradient-13"/><linearGradient id="linear-gradient-57" x1="652.41" y1="725.16" x2="652.41" y2="918.53" xlink:href="#linear-gradient-16"/><linearGradient id="linear-gradient-59" x1="-2683.4" y1="1082.54" x2="-2720.07" y2="1332.55" gradientTransform="matrix(-1, 0, 0, 1, -1675.92, 0)" xlink:href="#linear-gradient-13"/><linearGradient id="linear-gradient-60" x1="-2667.67" y1="952.77" x2="-2687.67" y2="1079.43" gradientTransform="matrix(-1, 0, 0, 1, -1675.92, 0)" xlink:href="#linear-gradient-13"/><linearGradient id="linear-gradient-61" x1="-2643.63" y1="766.42" x2="-2670.29" y2="939.08" gradientTransform="matrix(-1, 0, 0, 1, -1675.92, 0)" xlink:href="#linear-gradient-13"/><linearGradient id="linear-gradient-62" x1="-2648.33" y1="725.16" x2="-2648.33" y2="918.53" gradientTransform="matrix(-1, 0, 0, 1, -1675.92, 0)" xlink:href="#linear-gradient-16"/><linearGradient id="linear-gradient-64" x1="297.67" y1="1199.41" x2="421.67" y2="902.07" xlink:href="#linear-gradient-6"/><linearGradient id="linear-gradient-65" x1="479.08" y1="1275.07" x2="603.08" y2="977.73" xlink:href="#linear-gradient-6"/><linearGradient id="linear-gradient-66" x1="1038.87" y1="324.22" x2="988.86" y2="377.23" gradientTransform="translate(-453.72 182.75) rotate(9.2)" xlink:href="#linear-gradient-6"/><linearGradient id="linear-gradient-67" x1="2044.43" y1="-1402.06" x2="2292.42" y2="-1391.4" gradientTransform="translate(-2204.56 154.41) rotate(42.93)" xlink:href="#linear-gradient-5"/><linearGradient id="linear-gradient-68" x1="-1043.92" y1="2037.14" x2="-1813.26" y2="3222.23" gradientTransform="translate(568.99 -2407.43) rotate(-22.88)" gradientUnits="userSpaceOnUse"><stop offset="0" stop-color="#f83a07"/><stop offset="0.23" stop-color="#f95210"/><stop offset="0.75" stop-color="#fc8422"/><stop offset="1" stop-color="#fd9729"/></linearGradient><linearGradient id="linear-gradient-69" x1="427.47" y1="722.37" x2="902.13" y2="39.7" gradientTransform="translate(-320.97 132.82) rotate(6.53)" xlink:href="#linear-gradient-43"/><linearGradient id="linear-gradient-70" x1="835.79" y1="15.16" x2="515.79" y2="655.16" gradientTransform="translate(-320.97 132.82) rotate(6.53)" xlink:href="#linear-gradient-44"/><linearGradient id="linear-gradient-71" x1="808.06" y1="355.21" x2="689.05" y2="229.2" gradientTransform="translate(-320.97 132.82) rotate(6.53)" xlink:href="#linear-gradient"/><linearGradient id="linear-gradient-72" x1="1486.25" y1="1063.04" x2="814.28" y2="316.4" gradientTransform="matrix(0.98, 0.18, -0.18, 0.98, -495.35, 123.52)" xlink:href="#linear-gradient-6"/><linearGradient id="linear-gradient-73" x1="-1449.63" y1="1626.41" x2="-2148.39" y2="850.01" gradientTransform="matrix(0.81, -0.58, 0.58, 0.81, 1351.54, -1004.66)" xlink:href="#linear-gradient-6"/><linearGradient id="linear-gradient-74" x1="326.87" y1="590.05" x2="326.87" y2="900" gradientUnits="userSpaceOnUse"><stop offset="0" stop-color="#43caff"/><stop offset="0.38" stop-color="#35caff"/><stop offset="1" stop-color="#22cbff"/></linearGradient><linearGradient id="linear-gradient-75" x1="352.14" y1="515.5" x2="269.47" y2="1075.5" gradientTransform="matrix(1, 0, 0, 1, 0, 0)" xlink:href="#linear-gradient-5"/><linearGradient id="linear-gradient-76" x1="1674.11" y1="-146.43" x2="1624.11" y2="-93.43" gradientTransform="translate(-1003.12 277.16) rotate(19.91)" xlink:href="#linear-gradient-6"/><linearGradient id="linear-gradient-77" x1="1422.6" y1="-252.45" x2="1605.28" y2="-5.77" gradientTransform="translate(-1003.12 277.16) rotate(19.91)" xlink:href="#linear-gradient-5"/><linearGradient id="linear-gradient-78" x1="407.7" y1="457.04" x2="407.7" y2="491.85" xlink:href="#linear-gradient-6"/><linearGradient id="linear-gradient-79" x1="305.09" y1="953.34" x2="279.76" y2="590.65" gradientUnits="userSpaceOnUse"><stop offset="0" stop-color="#2095f9"/><stop offset="0.29" stop-color="#6bb8fb"/><stop offset="0.63" stop-color="#badefd"/><stop offset="0.87" stop-color="#ecf6fe"/><stop offset="0.99" stop-color="#fff"/></linearGradient><linearGradient id="linear-gradient-80" x1="289.26" y1="870.36" x2="289.26" y2="1054.41" gradientTransform="matrix(1, 0, 0, 1, 0, 0)" xlink:href="#linear-gradient-5"/><linearGradient id="linear-gradient-81" x1="289.26" y1="911.37" x2="289.26" y2="805.36" xlink:href="#linear-gradient-79"/><linearGradient id="linear-gradient-82" x1="332.49" y1="1450.49" x2="332.49" y2="1054.42" xlink:href="#linear-gradient-26"/><linearGradient id="linear-gradient-83" x1="332.49" y1="1135.82" x2="332.49" y2="899.82" xlink:href="#linear-gradient-26"/><linearGradient id="linear-gradient-84" x1="332.49" y1="1250.65" x2="332.49" y2="1383.03" xlink:href="#linear-gradient-26"/><linearGradient id="linear-gradient-85" x1="221.82" y1="1282.18" x2="221.82" y2="1345.21" xlink:href="#linear-gradient-26"/><linearGradient id="linear-gradient-87" x1="443.14" y1="1282.18" x2="443.14" y2="1345.21" xlink:href="#linear-gradient-26"/><linearGradient id="linear-gradient-89" x1="332.48" y1="1028.14" x2="332.48" y2="1498.33" xlink:href="#linear-gradient-34"/><linearGradient id="linear-gradient-90" x1="1885.54" y1="992.43" x2="1932.05" y2="1205.03" xlink:href="#linear-gradient-26"/><linearGradient id="linear-gradient-91" x1="1969.51" y1="917.13" x2="1969.51" y2="1172.82" gradientUnits="userSpaceOnUse"><stop offset="0" stop-color="#fff"/><stop offset="0.49" stop-color="#e9edfa"/><stop offset="1" stop-color="#d6def5"/></linearGradient><linearGradient id="linear-gradient-92" x1="2099.17" y1="985.07" x2="2010.58" y2="1243.88" xlink:href="#linear-gradient-35"/><linearGradient id="linear-gradient-93" x1="1969.1" y1="1017.15" x2="1969.1" y2="1398.54" gradientUnits="userSpaceOnUse"><stop offset="0" stop-color="#fff"/><stop offset="0.17" stop-color="#dce6fd"/><stop offset="0.57" stop-color="#8dacfa"/><stop offset="0.86" stop-color="#5b88f8"/><stop offset="1" stop-color="#487af7"/></linearGradient><linearGradient id="linear-gradient-94" x1="2025.12" y1="1331.82" x2="2025.12" y2="1131.81" xlink:href="#linear-gradient-93"/><linearGradient id="linear-gradient-95" x1="1979.86" y1="1331.81" x2="1979.86" y2="1068.88" xlink:href="#linear-gradient-93"/><linearGradient id="linear-gradient-96" x1="1092.53" y1="892.38" x2="1000.53" y2="1156.38" gradientUnits="userSpaceOnUse"><stop offset="0" stop-color="#fff"/><stop offset="0.12" stop-color="#e6f9ff"/><stop offset="0.55" stop-color="#97e6ff"/><stop offset="0.85" stop-color="#65dbff"/><stop offset="1" stop-color="#52d6ff"/></linearGradient><linearGradient id="linear-gradient-97" x1="836.67" y1="968.91" x2="930.01" y2="1107.58" xlink:href="#linear-gradient-96"/><linearGradient id="linear-gradient-98" x1="916.6" y1="1024.04" x2="991.93" y2="1288.03" gradientUnits="userSpaceOnUse"><stop offset="0" stop-color="#fff"/><stop offset="0.07" stop-color="#f2fbfd"/><stop offset="0.52" stop-color="#a3e0f3"/><stop offset="0.84" stop-color="#71cfed"/><stop offset="1" stop-color="#5ec9ea"/></linearGradient><linearGradient id="linear-gradient-99" x1="1058.37" y1="987.15" x2="1058.37" y2="1298.69" gradientUnits="userSpaceOnUse"><stop offset="0" stop-color="#fff"/><stop offset="0.2" stop-color="#ebf8ff"/><stop offset="0.74" stop-color="#b9e7ff"/><stop offset="1" stop-color="#a6e1ff"/></linearGradient><linearGradient id="linear-gradient-100" x1="1018.89" y1="1331.82" x2="1018.89" y2="1131.81" gradientUnits="userSpaceOnUse"><stop offset="0" stop-color="#fff"/><stop offset="0.2" stop-color="#d2f0f7"/><stop offset="0.59" stop-color="#83d5e8"/><stop offset="0.86" stop-color="#51c4df"/><stop offset="1" stop-color="#3ebedb"/></linearGradient><linearGradient id="linear-gradient-101" x1="987.44" y1="1331.82" x2="987.44" y2="1131.81" xlink:href="#linear-gradient-100"/><linearGradient id="linear-gradient-102" x1="964.93" y1="1001.15" x2="964.93" y2="1210.76" xlink:href="#linear-gradient-100"/></defs><g class="cls-1"><g id="Layer_2" data-name="Layer 2"><g id="Layer_1-2" data-name="Layer 1"><path class="cls-2" d="M2008,418.35H1885.25l-70.89-126.29a9.9,9.9,0,0,0-8.67-5l0-.08H1627l0,.08a8.35,8.35,0,0,0-4.17,1c-4.36,2.5-5.73,8.42-3,13.14l72.81,129.71a.18.18,0,0,0,.08.07c.13.28.34.5.49.77a9.38,9.38,0,0,0,1.18,1.61,8.36,8.36,0,0,0,1,1,11.53,11.53,0,0,0,1.45.93,10.23,10.23,0,0,0,5,1.42H2008c5.43,0,9.9-4.13,9.9-9.17S2013.42,418.35,2008,418.35Z"/><path class="cls-3" d="M1801.47,288c4.39-2.51,10.19-.7,12.89,4l70.89,126.29H2008c5.43,0,9.9,4.13,9.9,9.18s-4.47,9.17-9.9,9.17H1880.47a10.23,10.23,0,0,1-5-1.42,11.53,11.53,0,0,1-1.45-.93,8.36,8.36,0,0,1-1-1,10,10,0,0,1-1.19-1.61c-.14-.27-.35-.49-.48-.77a.18.18,0,0,1-.08-.07l-72.81-129.71C1795.74,296.46,1797.11,290.54,1801.47,288Z"/><path class="cls-4" d="M1801.47,288c4.39-2.51,10.19-.7,12.89,4l70.89,126.29H2008c5.43,0,9.9,4.13,9.9,9.18s-4.47,9.17-9.9,9.17H1880.47a10.23,10.23,0,0,1-5-1.42,11.53,11.53,0,0,1-1.45-.93,8.36,8.36,0,0,1-1-1,10,10,0,0,1-1.19-1.61c-.14-.27-.35-.49-.48-.77a.18.18,0,0,1-.08-.07l-72.81-129.71C1795.74,296.46,1797.11,290.54,1801.47,288Z"/><path class="cls-5" d="M1895,433.21a1,1,0,0,0,.94.93h10.7a.94.94,0,0,0,.94-.93V422.49a.93.93,0,0,0-.94-.92H1896a.94.94,0,0,0-.94.92Z"/><path class="cls-5" d="M1932.3,426a1,1,0,0,0,.94.94h14.32a1,1,0,0,0,.93-.94v-3.46a.94.94,0,0,0-.93-.92h-14.32a.93.93,0,0,0-.94.92Z"/><path class="cls-5" d="M1932.3,433.21a.94.94,0,0,0,.94.93h14.32a1,1,0,0,0,.93-.93v-3.45a.94.94,0,0,0-.93-.94h-14.32a.94.94,0,0,0-.94.94Z"/><path class="cls-5" d="M1911.86,426a.94.94,0,0,0,.92.94h14.33a1,1,0,0,0,.94-.94v-3.46a.93.93,0,0,0-.94-.92h-14.33a.93.93,0,0,0-.92.92Z"/><path class="cls-5" d="M1911.86,433.21a.94.94,0,0,0,.92.93h14.33a.94.94,0,0,0,.94-.93v-3.45a.94.94,0,0,0-.94-.94h-14.33a.93.93,0,0,0-.92.94Z"/><path class="cls-6" d="M1967.77,423.74h-6.33V432h6.33Zm17.31,0h-6.31V432h6.31Zm-8.66,0h-6.32V432h6.32Zm26.3,0h-6.33V432h6.33Zm-9,0h-6.33V432h6.33Zm-39.84,4.1a4.3,4.3,0,0,0,4.42,4.11h.78v-8.21h-.78A4.3,4.3,0,0,0,1953.91,427.84Zm51.94-4.1h-.8V432h.8a4.11,4.11,0,1,0,0-8.21Z"/><path class="cls-7" d="M2053.31,436.76c-137.39-.12-247.4,0-247.4,0l-13.85,17.84s124.86,19.3,267.25,30.94c0,0,17.21-1,17-26.81C2076.19,434.35,2053.81,436.76,2053.31,436.76Z"/><path class="cls-7" d="M2159.1,232.79s-39.75,99.13-124.5,211.8c0,0-13,19.19,5.79,34.31,20,16,34-2,34-2,.36-.39.71-.79,1.07-1.19,87.21-100.19,132.55-202.92,125.3-229.4S2169.63,216,2159.1,232.79Z"/><path class="cls-8" d="M2139.75,248.46c-20.25,55.67-72,136.69-87.65,161.41,0,0,5.67,22.08,25.61,35.28,28.51,18.89,50.31,24,50.31,24,31.08-68,88.08-164,91-213.68S2163.66,182.79,2139.75,248.46Z"/><path class="cls-7" d="M1792.06,454.59c-20.29-2.11-58.56-9.88-65.06-20.15s-6.34-21.94,11.49-23.12,42.26-3.4,50,2.1,3,23.26,15.75,23.31-5.75-13.06-2.25-17.56,17,10.37,25.5,17.56S1816.06,457.09,1792.06,454.59Z"/><path class="cls-9" d="M2163.55,1324c-7.84-53.71-13.84-124.21-14.11-127.46l26.67-2.24c.06.72,6.58,65.66,13.91,117.92Z"/><path class="cls-10" d="M2192.6,1285.49c-4.75-4-68.24,12.45-105.91,21s-47,32.48,1.48,33.34,91.68,1.61,91.68,1.61,27.53,2.54,24.23-14.14C2201.11,1312.4,2197,1289.29,2192.6,1285.49Z"/><path class="cls-11" d="M2133.24,1246.64s53.61-.71,55.09-11.8c3.67-27.22,8.41-224.8,14.31-380.77,0,0-12.25-55-71.95-45.67-55.67,8.7-53.63,58-53.63,58C2111.25,1045.09,2133.24,1246.64,2133.24,1246.64Z"/><path class="cls-12" d="M2281.35,528.39c-4.49-37.52-129.21-34.94-144.58,33.68-7.27,32.36-31.17,165.61-58.22,288,0,0-10.5,47.53,42.55,60.81,62,15.48,79.89-31,79.89-31,11.26-30.21,21.56-59.38,30.2-86C2284.74,628.76,2291.06,609.76,2281.35,528.39Z"/><path class="cls-9" d="M2566.46,1292.34c-28.65-46.13-62.25-108.38-63.79-111.25l23.58-12.7c.35.64,32.19,57.6,59.78,102.6Z"/><path class="cls-13" d="M2514.08,1237.17s46.94-25.94,43-36.44c-9.64-25.72-98.83-202.08-167.33-342.34,0,0-36.78-42.69-85-6.25-44.94,34-19.86,76.45-19.86,76.45C2399.47,1069.93,2514.08,1237.17,2514.08,1237.17Z"/><path class="cls-14" d="M2301.72,470.89c-21.66-30.9-130.37,30.28-111.5,98,8.89,32,54.31,224,88.27,344.58,0,0,13.22,46.84,66.25,33.48,61.9-15.64,55.73-65.09,55.73-65.09-4.33-31.94-9-62.5-14-90.08C2355.64,621,2348.74,538,2301.72,470.89Z"/><path class="cls-10" d="M2578.11,1233.4c-6.12-1.22-53.53,44.13-82.26,69.92s-25.25,51.3,17.54,28.39l80.83-43.26s25.28-11.21,14.28-24.16C2598.66,1252.74,2583.75,1234.6,2578.11,1233.4Z"/><path class="cls-15" d="M2253.66,201.16c45.64-.47,69.75,16.09,71.58,57.45,7.72,174.52,11.7,259.73,47,355.85-14.49,14.72-30.83,17.63-78.41,24.6-67.66,9.87-153-.22-172.36-24.88,11.7-128.06,0-167.69,18.58-328.26,5.4-46.78,10-77.75,65.23-85.62C2205.14,200.31,2246.1,200.22,2253.66,201.16Z"/><path class="cls-16" d="M2121.44,138.49c-43.73,7.49-111.19-85.34-31-112,53.33-17.74,105.52-52.93,145.73,7.13s-4.78,105.94-9.9,141.86c-4.47,31.37-31.81,41-59.08-12.06S2134.27,136.29,2121.44,138.49Z"/><path class="cls-9" d="M2112.31,94.6s-1.1,80.8,18.38,95.69,48.41-3.14,48.41-3.14,7,12,6,17.73-20.61,33.92,9.28,33.93c30.94,0,42.58-38.76,42.58-38.76s-9.24-16.1-28.75-75.52c.73-8.66,23-25.28,11-40.33s-26.08,12.94-26.08,12.94l-2-44S2139.64,96.59,2112.31,94.6Z"/><path class="cls-9" d="M2263,468.32c-121.5-64.18-216.9-118.17-216.9-118.17l-22.54,12.13s101.46,75.29,222,152c0,0,15.69,7.14,27.58-15.77C2284.35,476.85,2263.42,468.55,2263,468.32Z"/><path class="cls-9" d="M2269.41,242s-.55,106.8-38,242.73c0,0-5.06,22.64,18,29.78,24.47,7.55,30.84-14.31,30.84-14.31.19-.5.39-1,.58-1.51,44.28-125.23,48.7-237.42,32.24-259.38S2273,222.46,2269.41,242Z"/><path class="cls-17" d="M2257.17,263.65c1.63,59.22-16.75,153.59-22.2,182.33,0,0,13.38,18.45,36.77,23.41,33.47,7.09,55.61,3.81,55.61,3.81,3.93-74.64,21.67-184.88,6.14-232.17S2255.27,193.79,2257.17,263.65Z"/><path class="cls-9" d="M2045.1,363.06c-5.88,1.73-14.75,2.36-21.54-.78a44.57,44.57,0,0,0-11.12-3.63c-16.78-3.73-20-.33-27.41,1.3-4.86-5-.37-8.34,7.24-13s-7.39-9.56-24.24-8.38-21.54,12-24.62,8.2c-1.77-2.13,2.81-24,43.23-24.86,29.28-.69,44.17,21.4,59.46,28.2S2051.19,361.26,2045.1,363.06Z"/><path class="cls-18" d="M1438.1,1323.67l27.61-225.35-4.38-.54a8.94,8.94,0,0,1-7.75-9.91l14.06-114.76-13.48-1.65L1478,776.81h85.63l-25.1,205-13.48-1.65-14,114.75a8.93,8.93,0,0,1-9.92,7.75l-4.36-.53-27.59,225.34a15.63,15.63,0,1,1-31-3.79Z"/><g class="cls-19"><path class="cls-20" d="M1451.67,1341.45a15.89,15.89,0,0,0,17.46-14l33.64-274.76a15.63,15.63,0,1,0-31-3.8l-33.65,274.77A15.88,15.88,0,0,0,1451.67,1341.45Z"/><path class="cls-21" d="M1471,945.53a8.91,8.91,0,0,1,9.9-7.75l39.75,4.86a8.93,8.93,0,0,1,7.75,9.92L1511,1094.9a8.93,8.93,0,0,1-9.92,7.75l-39.75-4.87a8.94,8.94,0,0,1-7.75-9.91Z"/><polygon class="cls-22" points="1563.63 776.82 1538.53 981.8 1454.16 971.46 1478 776.82 1563.63 776.82"/></g><rect class="cls-18" x="1462.75" y="776.81" width="116.5" height="22.34"/><rect class="cls-23" x="1462.75" y="776.81" width="116.5" height="22.34"/><rect class="cls-23" x="1462.75" y="776.81" width="116.5" height="22.34"/><path class="cls-18" d="M1923.91,1323.67l-27.61-225.35,4.37-.54a8.92,8.92,0,0,0,7.75-9.91l-14.06-114.76,13.49-1.65L1884,776.81h-85.62l25.09,205,13.49-1.65,14,114.75a8.94,8.94,0,0,0,9.92,7.75l4.36-.53,27.6,225.34a15.63,15.63,0,1,0,31-3.79Z"/><g class="cls-19"><path class="cls-24" d="M1910.33,1341.45a15.88,15.88,0,0,1-17.45-14l-33.64-274.76a15.63,15.63,0,1,1,31-3.8l33.66,274.77A15.89,15.89,0,0,1,1910.33,1341.45Z"/><path class="cls-25" d="M1891,945.53a8.93,8.93,0,0,0-9.91-7.75l-39.75,4.86a8.94,8.94,0,0,0-7.75,9.92L1851,1094.9a8.94,8.94,0,0,0,9.92,7.75l39.75-4.87a8.92,8.92,0,0,0,7.75-9.91Z"/><polygon class="cls-26" points="1798.38 776.82 1823.47 981.8 1907.85 971.46 1884 776.82 1798.38 776.82"/></g><rect class="cls-18" x="1782.75" y="776.81" width="116.5" height="22.34"/><rect class="cls-27" x="1782.75" y="776.81" width="116.5" height="22.34"/><rect class="cls-27" x="1782.75" y="776.81" width="116.5" height="22.34"/><path class="cls-28" d="M838.16,596.92c-4.38-2.52-10.17-.71-12.88,4l-70.89,126.3H606.21c-5.44,0-9.91,4.12-9.91,9.17s4.47,9.17,9.91,9.17H759.16a10.12,10.12,0,0,0,5-1.42,11.28,11.28,0,0,0,1.47-.92,9,9,0,0,0,1-1,8.13,8.13,0,0,0,1.18-1.61,6.22,6.22,0,0,0,.5-.76l.08-.08,72.8-129.7C843.89,605.34,842.53,599.42,838.16,596.92Z"/><path class="cls-29" d="M838.16,596.92c-4.38-2.52-10.17-.71-12.88,4l-70.89,126.3H606.21c-5.44,0-9.91,4.12-9.91,9.17s4.47,9.17,9.91,9.17H759.16a10.12,10.12,0,0,0,5-1.42,11.28,11.28,0,0,0,1.47-.92,9,9,0,0,0,1-1,8.13,8.13,0,0,0,1.18-1.61,6.22,6.22,0,0,0,.5-.76l.08-.08,72.8-129.7C843.89,605.34,842.53,599.42,838.16,596.92Z"/><path class="cls-5" d="M744.6,742.09a.94.94,0,0,1-.94.92H733a.94.94,0,0,1-.94-.92V731.37a.94.94,0,0,1,.94-.92h10.69a.94.94,0,0,1,.94.92Z"/><path class="cls-5" d="M707.33,734.82a.93.93,0,0,1-.92.94H692.08a.94.94,0,0,1-.94-.94v-3.45a.93.93,0,0,1,.94-.92h14.33a.93.93,0,0,1,.92.92Z"/><path class="cls-5" d="M707.33,742.09a.93.93,0,0,1-.92.92H692.08a.93.93,0,0,1-.94-.92v-3.45a.94.94,0,0,1,.94-.94h14.33a.93.93,0,0,1,.92.94Z"/><path class="cls-5" d="M727.78,734.82a.94.94,0,0,1-.93.94H712.52a.93.93,0,0,1-.92-.94v-3.45a.93.93,0,0,1,.92-.92h14.33a.93.93,0,0,1,.93.92Z"/><path class="cls-5" d="M727.78,742.09a.93.93,0,0,1-.93.92H712.52a.93.93,0,0,1-.92-.92v-3.45a.93.93,0,0,1,.92-.94h14.33a.94.94,0,0,1,.93.94Z"/><path class="cls-30" d="M619.91,740.82h6.33v-8.2h-6.33Zm52,0h6.31v-8.2h-6.31Zm-17.33,0h6.33v-8.2h-6.33Zm8.66,0h6.32v-8.2h-6.32Zm-52,0h6.31v-8.2h-6.31Zm34.64,0h6.32v-8.2h-6.32Zm35.42-8.2h-.78v8.2h.78a4.11,4.11,0,1,0,0-8.2Zm-44.07,8.2h6.31v-8.2h-6.31Zm-8.68,0h6.33v-8.2h-6.33Zm-24.84-4.11a4.29,4.29,0,0,0,4.41,4.11h.78v-8.2h-.78A4.29,4.29,0,0,0,603.72,736.71Z"/><path class="cls-31" d="M1248.69,960.78c1.22-5.7,29.84-140.28,27.09-201-6.28-137.92-42.56-196.77-44.11-199.22-15.29-24.17-44.25-46-67.34-50.82l-30.58-6.36a24,24,0,0,0-4-.43v0h-296V503A23.95,23.95,0,0,0,830,550.36l30.6,6.38c9.33,1.93,27.71,15.52,36.44,29.32.31.51,31.22,52.54,36.83,175.9,2.47,54.57-25.78,187.44-26.08,188.78a60.72,60.72,0,0,0-.89,20.14h350c-3.25,0-5.78-.92-7.14-2.58S1248,964,1248.69,960.78Z"/><path class="cls-32" d="M1248.69,960.78c1.22-5.7,29.84-140.28,27.09-201-6.28-137.92-42.56-196.77-44.11-199.22-15.29-24.17-44.25-46-67.34-50.82l-30.58-6.36a24,24,0,0,0-4-.43v0h-296V503A23.95,23.95,0,0,0,830,550.36l30.6,6.38c9.33,1.93,27.71,15.52,36.44,29.32.31.51,31.22,52.54,36.83,175.9,2.47,54.57-25.78,187.44-26.08,188.78a60.72,60.72,0,0,0-.89,20.14h350c-3.25,0-5.78-.92-7.14-2.58S1248,964,1248.69,960.78Z"/><path class="cls-31" d="M1461.22,970.88H1086.85v48h374.37a24,24,0,0,0,0-48Z"/><path class="cls-33" d="M1167.22,1018.88H962.86c-17.76,0-34-7.44-44.45-20.4S904,968.12,907.75,950.74c.3-1.34,28.55-134.21,26.08-188.78C928.22,638.6,897.31,586.57,897,586.06c-8.73-13.8-27.11-27.39-36.44-29.32L830,550.36a24,24,0,1,1,9.79-47l30.58,6.36c23.09,4.79,52,26.65,67.34,50.82,1.55,2.45,37.83,61.3,44.11,199.22,2.75,60.72-25.87,195.3-27.09,201-.67,3.18-.31,5.85,1,7.52s3.89,2.58,7.14,2.58h204.36a24,24,0,0,1,0,48Z"/><path class="cls-33" d="M1287.58,1298.27l-101-26a38.7,38.7,0,0,0-16.11,0l-101,26a11.32,11.32,0,0,0-8,10.38v1.65a8.34,8.34,0,0,0,8.31,8.31h217.59a8.34,8.34,0,0,0,8.32-8.31v-1.65A11.3,11.3,0,0,0,1287.58,1298.27Z"/><path class="cls-33" d="M1201.8,1288.49c0,13.2-10.47,24-23.28,24s-23.28-10.8-23.28-24v-141.4c0-13.2,10.48-24,23.28-24s23.28,10.8,23.28,24Z"/><path class="cls-34" d="M1201.8,1288.49c0,13.2-10.47,24-23.28,24s-23.28-10.8-23.28-24v-141.4c0-13.2,10.48-24,23.28-24s23.28,10.8,23.28,24Z"/><rect class="cls-33" x="1139.24" y="1018.88" width="78.56" height="140.95"/><rect class="cls-35" x="1139.24" y="1018.88" width="78.56" height="140.95"/><circle class="cls-36" cx="1178.52" cy="1290.4" r="13.25"/><path class="cls-33" d="M1092.31,1316.15a24.45,24.45,0,1,0-24.45,24.45A24.43,24.43,0,0,0,1092.31,1316.15Z"/><path class="cls-37" d="M1092.31,1316.15a24.45,24.45,0,1,0-24.45,24.45A24.43,24.43,0,0,0,1092.31,1316.15Z"/><path class="cls-37" d="M1092.31,1316.15a24.45,24.45,0,1,0-24.45,24.45A24.43,24.43,0,0,0,1092.31,1316.15Z"/><path class="cls-38" d="M1078.31,1316.15a10.45,10.45,0,1,0-10.45,10.45A10.44,10.44,0,0,0,1078.31,1316.15Z"/><path class="cls-33" d="M1313.63,1316.15a24.45,24.45,0,1,0-24.44,24.45A24.43,24.43,0,0,0,1313.63,1316.15Z"/><path class="cls-39" d="M1313.63,1316.15a24.45,24.45,0,1,0-24.44,24.45A24.43,24.43,0,0,0,1313.63,1316.15Z"/><path class="cls-39" d="M1313.63,1316.15a24.45,24.45,0,1,0-24.44,24.45A24.43,24.43,0,0,0,1313.63,1316.15Z"/><path class="cls-38" d="M1299.63,1316.15a10.45,10.45,0,1,0-10.44,10.45A10.43,10.43,0,0,0,1299.63,1316.15Z"/><rect class="cls-33" x="1171.74" y="1274.62" width="13.58" height="49.48" rx="2"/><rect class="cls-40" x="1173.74" y="1291.71" width="9.58" height="49.48" rx="2"/><path class="cls-41" d="M1289.19,1291.71a24.31,24.31,0,0,0-12.78,3.68l-74.61-19.18V1159.82h16V1018.88h-78.56v140.94h16v116.39l-74.6,19.18a24.45,24.45,0,1,0,11.42,23.22h79.68v3.49a2,2,0,0,0,2,2v15.08a2,2,0,0,0,2,2h5.57a2,2,0,0,0,2-2V1324.1a2,2,0,0,0,2-2v-3.49H1265a24.39,24.39,0,1,0,24.2-26.9Z"/><path class="cls-9" d="M1223.61,688.06c140.78-15,243.05-46.21,243.05-46.21l19.62,16.77S1371,713.37,1229.53,738.94c0,0-17.09,2.23-21.76-23.16-4.41-24,14.4-27.54,14.4-27.54Z"/><path class="cls-9" d="M1330.28,499.42s-43.42,76.92-71.78,215c0,0-5.76,22.49-29.56,18.38-25.22-4.39-21-26.75-21-26.75.06-.53.1-1.08.17-1.6,17.39-131.69,59.81-215.17,84.47-227.25S1335.91,480.39,1330.28,499.42Z"/><path class="cls-42" d="M1333.91,526.35c-14.69,61-33.24,116.18-41.42,144.26,0,0-32.74,10.42-60.19,5.36-22-4.05-27.47-21.33-27.47-21.33,19.48-77.62,51.05-157.81,74.77-197.75C1299,424.2,1350.27,458.41,1333.91,526.35Z"/><path class="cls-9" d="M1479.49,659.42c27-1.89,19.86-18,33.86-24.26,35-15.6,42.78,2.51,46.7-1.65,10.5-11.16-37.61-27.2-55.67-18.82s-26.41,22-37.72,27.16S1465.22,660.43,1479.49,659.42Z"/><path class="cls-43" d="M1508,640.66c5.23-11.15,27.64-6.56,29-13.48s-18.68-7.83-33.25,0-6.14,26.57-14.53,30.57C1497.94,655.25,1500.69,656.22,1508,640.66Z"/><path class="cls-9" d="M1703.17,1312.42c-21.15-50-52.62-113.35-54.09-116.27l-23.94,11.94c.32.65,28.46,59.51,49.32,108Z"/><path class="cls-10" d="M1659.28,1293.19c1.82-6,64-26.68,100.28-40s57.16,1.67,16.91,28.8l-76.06,51.21s-21.72,17.11-28,1.32C1666.77,1320.39,1657.71,1298.74,1659.28,1293.19Z"/><path class="cls-44" d="M1681,1242.91s-47.89,24.09-54.36,14.93c-15.79-22.46-111.12-195.57-188.31-331.23,0,0-15.08-56.3,42.8-73.72,57-17.17,74.31,26.71,74.31,26.71C1607.53,1053.93,1681,1242.91,1681,1242.91Z"/><path class="cls-45" d="M1193,958.8c-96.81-14.34-49.93-154.42,20.11-148.24,33,2.9,167.27,20.58,292,31.93,0,0,48.47,4.43,45,59-4.06,63.72-53.83,66.7-53.83,66.7-32.17,1.57-63.09,2.77-91.09,2.68C1262.88,970.39,1285.72,972.52,1193,958.8Z"/><path class="cls-9" d="M1473.91,1314.37c-7-53.84-20.35-102-21-105.24l-26.27,5.09a907.57,907.57,0,0,1,18.58,96Z"/><path class="cls-10" d="M1436.46,1289.53c2.92-5.54,67.93-14.07,106.06-20.31s55.78,12.48,11.12,31.49-84.39,35.86-84.39,35.86-24.58,12.68-27.76-4C1438.66,1317.65,1433.86,1294.68,1436.46,1289.53Z"/><path class="cls-46" d="M1471.16,1241.44s-52.6,10.41-56.38-.16c-9.2-25.87-54.67-196.91-92.68-348.28,0,0,.53-58.28,61-59.57,59.56-1.26,64.45,45.63,64.45,45.63C1451,1061,1471.16,1241.44,1471.16,1241.44Z"/><path class="cls-47" d="M1093.6,967.32c-61.77-4.58-65.33-86.68-33.77-171.26,33.17,1.15,202.33,43.34,339.33,38.58,0,0,48.64,1.87,48.09,56.53-.69,63.84-50.22,69.47-50.22,69.47-32,3.26-62.87,6.09-90.82,7.48C1164,975.18,1187,974.26,1093.6,967.32Z"/><path class="cls-48" d="M1223,418.81c-45.09-7.06-61.48,9.05-79.14,46.5-69.76,148-88.37,270.46-103.61,368.1,12.22,16.65,49.86,19.72,97.82,23.33,77.31,5.82,131.59-15.58,154.29-37.18-35.23-68.82-35.53-130.71,30.83-300.43,17.16-43.86,1.33-78.38-52.17-94.16C1271.16,425,1230.66,419,1223,418.81Z"/><path class="cls-49" d="M1363.56,394.5s46-5.13,59.24-76.6-105-114-155.25-62.11-4.78,102.33-24.28,125.86c-20.22,24.42,32.72,61.53,69,14.16S1363.56,394.5,1363.56,394.5Z"/><g class="cls-19"><path class="cls-50" d="M1363.56,394.5s46-5.13,59.24-76.6-105-114-155.25-62.11-4.78,102.33-24.28,125.86c-20.22,24.42,32.72,61.53,69,14.16S1363.56,394.5,1363.56,394.5Z"/></g><path class="cls-9" d="M1378.55,337.9s-13.31,79.69-35.14,90.86S1296.33,417,1296.33,417s-6.19,9.58-6,15.37,15.5,36.55-14.08,32.23c-30.62-4.47-36.53-44.5-36.53-44.5s9.34-14.91,39.14-69.9c.81-8.65-18.09-29-3.66-41.67S1298.52,326,1298.52,326l9.79-42.93S1351.31,335,1378.55,337.9Z"/><path class="cls-51" d="M1295,736.4c0,5.05,4.47,9.17,9.91,9.17H1611a10.16,10.16,0,0,0,5-1.41,12.42,12.42,0,0,0,1.46-.93,7.63,7.63,0,0,0,1-1,9,9,0,0,0,1.19-1.62c.14-.26.36-.47.48-.75a.22.22,0,0,0,.08-.09l72.81-129.7c2.71-4.71,1.33-10.64-3-13.14a8.32,8.32,0,0,0-4.17-1l0-.08H1507.24l0,.08a9.92,9.92,0,0,0-8.68,5l-70.89,126.29H1304.91C1299.47,727.23,1295,731.35,1295,736.4Z"/><path class="cls-52" d="M1511.42,596.92c-4.39-2.51-10.18-.7-12.89,4l-70.89,126.29H1304.91c-5.44,0-9.91,4.12-9.91,9.17s4.47,9.17,9.91,9.17h127.51a10.16,10.16,0,0,0,5-1.41,12.42,12.42,0,0,0,1.46-.93,7.63,7.63,0,0,0,1-1,9,9,0,0,0,1.19-1.62c.14-.26.36-.47.48-.75a.22.22,0,0,0,.08-.09l72.82-129.7C1517.16,605.35,1515.78,599.42,1511.42,596.92Z"/><path class="cls-53" d="M1511.42,596.92c-4.39-2.51-10.18-.7-12.89,4l-70.89,126.29H1304.91c-5.44,0-9.91,4.12-9.91,9.17s4.47,9.17,9.91,9.17h127.51a10.16,10.16,0,0,0,5-1.41,12.42,12.42,0,0,0,1.46-.93,7.63,7.63,0,0,0,1-1,9,9,0,0,0,1.19-1.62c.14-.26.36-.47.48-.75a.22.22,0,0,0,.08-.09l72.82-129.7C1517.16,605.35,1515.78,599.42,1511.42,596.92Z"/><path class="cls-5" d="M1417.86,742.09a.93.93,0,0,1-.94.92h-10.7a.93.93,0,0,1-.94-.92V731.38a.94.94,0,0,1,.94-.93h10.7a.94.94,0,0,1,.94.93Z"/><path class="cls-5" d="M1380.6,734.83a.94.94,0,0,1-.94.93h-14.33a.93.93,0,0,1-.92-.93v-3.45a.93.93,0,0,1,.92-.93h14.33a.94.94,0,0,1,.94.93Z"/><path class="cls-5" d="M1380.6,742.09a.93.93,0,0,1-.94.92h-14.33a.92.92,0,0,1-.92-.92v-3.45a.93.93,0,0,1,.92-.94h14.33a1,1,0,0,1,.94.94Z"/><path class="cls-5" d="M1401,734.83a.93.93,0,0,1-.92.93h-14.33a.93.93,0,0,1-.93-.93v-3.45a.93.93,0,0,1,.93-.93h14.33a.93.93,0,0,1,.92.93Z"/><path class="cls-5" d="M1401,742.09a.92.92,0,0,1-.92.92h-14.33a.93.93,0,0,1-.93-.92v-3.45a.94.94,0,0,1,.93-.94h14.33a.93.93,0,0,1,.92.94Z"/><path class="cls-54" d="M1345.13,740.82h6.33v-8.19h-6.33Zm-17.32,0h6.32v-8.19h-6.32Zm8.66,0h6.33v-8.19h-6.33Zm-26.3,0h6.33v-8.19h-6.33Zm9,0h6.33v-8.19h-6.33Zm35.42-8.19h-.78v8.19h.78a4.11,4.11,0,1,0,0-8.19Zm-51.92,4.09a4.3,4.3,0,0,0,4.41,4.1h.8v-8.19h-.8A4.29,4.29,0,0,0,1302.64,736.72Z"/><path class="cls-9" d="M1026.39,656.32c141.57-2.26,246.22-24.08,246.22-24.08l18,18.49s-119.75,44.11-263,56.8c0,0-17.23.68-19.59-25-2.22-24.27,16.84-26.12,16.84-26.12C1025.41,656.35,1025.88,656.35,1026.39,656.32Z"/><path class="cls-9" d="M1200.83,485.63s-74.53,76.5-143.22,199.61c0,0-12.28,19.69-33.73,8.6-22.72-11.78-11.94-31.84-11.94-31.84.22-.48.44-1,.66-1.47,56.28-120.31,131.84-203.37,159-207.46S1211.94,469.18,1200.83,485.63Z"/><path class="cls-55" d="M1196.16,512.4c-32.41,53.74-66.72,100.74-83,125.05,0,0-34.36,0-59-13.05-19.75-10.5-19.75-28.62-19.75-28.62,42-68.14,96.26-135.07,130.92-166C1193.71,404.48,1232.25,452.55,1196.16,512.4Z"/><path class="cls-9" d="M1283.8,650.92c27.11.56,21.41-16.17,35.91-21.11,36.29-12.38,42.39,6.36,46.65,2.58,11.49-10.16-35-30.5-53.73-23.78s-28.3,19.55-40,23.63S1269.5,650.63,1283.8,650.92Z"/><path class="cls-56" d="M1313.88,634.8c6.22-10.63,28.11-4,30.14-10.81s-17.91-9.47-33.11-3-8.53,25.9-17.25,29.12C1302.55,648.42,1305.21,649.64,1313.88,634.8Z"/><path class="cls-57" d="M1276.22,464.64s-9.69.53-21.37,10c-12.66,10.28-15.16,19.84-15.16,19.84a121.5,121.5,0,0,1-12.92-42c-3-24.71,5-32.91,5-32.91l7.94.52s2.47,17.46,12.47,29.71A44.42,44.42,0,0,0,1276.22,464.64Z"/><path class="cls-58" d="M1276.22,464.64s8.77,4.15,16,17.36c7.83,14.31,6.52,24.1,6.52,24.1s10.84-9.57,11.79-34.45c1-26.33-12.84-36.22-12.84-36.22l-7.39-3s5.14,16.57,3.61,24.64C1291.86,467.85,1276.22,464.64,1276.22,464.64Z"/><path class="cls-18" d="M1969.1,761.2a15.87,15.87,0,0,1-16,15.61H565a15.62,15.62,0,1,1,0-31.24H1953.1A15.87,15.87,0,0,1,1969.1,761.2Z"/><path class="cls-59" d="M1075.86,761.2a15.86,15.86,0,0,1-16,15.61H565a15.62,15.62,0,1,1,0-31.24h494.9A15.86,15.86,0,0,1,1075.86,761.2Z"/><path class="cls-18" d="M569.5,1323.67l27.61-225.35-4.37-.54a8.92,8.92,0,0,1-7.75-9.91l14.06-114.76-13.49-1.65,23.85-194.65H695l-25.09,205-13.48-1.65L642.41,1094.9a8.94,8.94,0,0,1-9.92,7.75l-4.36-.53-27.6,225.34a15.63,15.63,0,1,1-31-3.79Z"/><g class="cls-19"><path class="cls-60" d="M583.08,1341.45a15.87,15.87,0,0,0,17.45-14l33.64-274.76a15.63,15.63,0,1,0-31-3.8L569.5,1323.67A15.89,15.89,0,0,0,583.08,1341.45Z"/><path class="cls-61" d="M602.42,945.53a8.93,8.93,0,0,1,9.91-7.75l39.75,4.86a8.94,8.94,0,0,1,7.75,9.92L642.41,1094.9a8.94,8.94,0,0,1-9.92,7.75l-39.75-4.87a8.92,8.92,0,0,1-7.75-9.91Z"/><polygon class="cls-62" points="695.03 776.82 669.94 981.8 585.57 971.46 609.41 776.82 695.03 776.82"/></g><rect class="cls-18" x="594.16" y="776.81" width="116.5" height="22.34"/><rect class="cls-63" x="594.16" y="776.81" width="116.5" height="22.34"/><rect class="cls-63" x="594.16" y="776.81" width="116.5" height="22.34"/><path class="cls-18" d="M1055.31,1323.67l-27.6-225.35,4.37-.54a8.94,8.94,0,0,0,7.75-9.91l-14.06-114.76,13.48-1.65-23.84-194.65H929.78l25.1,205,13.48-1.65,14,114.75a8.93,8.93,0,0,0,9.92,7.75l4.36-.53,27.59,225.34a15.63,15.63,0,1,0,31-3.79Z"/><g class="cls-19"><path class="cls-64" d="M1041.74,1341.45a15.89,15.89,0,0,1-17.46-14L990.64,1052.7a15.63,15.63,0,1,1,31-3.8l33.65,274.77A15.88,15.88,0,0,1,1041.74,1341.45Z"/><path class="cls-65" d="M1022.39,945.53a8.91,8.91,0,0,0-9.9-7.75l-39.75,4.86a8.93,8.93,0,0,0-7.75,9.92l17.42,142.34a8.93,8.93,0,0,0,9.92,7.75l39.75-4.87a8.94,8.94,0,0,0,7.75-9.91Z"/><polygon class="cls-66" points="929.78 776.82 954.88 981.8 1039.25 971.46 1015.41 776.82 929.78 776.82"/></g><rect class="cls-18" x="914.16" y="776.81" width="116.5" height="22.34"/><rect class="cls-67" x="914.16" y="776.81" width="116.5" height="22.34"/><rect class="cls-67" x="914.16" y="776.81" width="116.5" height="22.34"/><path class="cls-68" d="M312.63,775.18c-47.39-8-47.39-8-73.22-1.62-53.5,98.15,19.36,172.61,51.48,181.65,59.57,16.77,224.55,19.21,332.19,32l16.38-87.89C560.21,864.51,312.63,775.18,312.63,775.18Z"/><path class="cls-10" d="M460.17,1288.09s-9.26,41.15.3,46.61c11.41,6.5,117.91,10.18,123.63.89,6.29-10.2-1.25-19-66.83-50C489.58,1272.54,468.22,1268.14,460.17,1288.09Z"/><path class="cls-9" d="M467.88,1294c21.68-51.57,51.93-108.49,51.7-109.35l23.56,6.13c-5.31,12.7-26.08,49.72-47,96.67,0,0,79,28.81,77.39,33.44-1,2.94-28.46-6-60.56-12.24C501.42,1306.4,467.69,1301.88,467.88,1294Z"/><path class="cls-69" d="M651.1,1001.22c11.12-23.61,25.54-85.83-11.64-101.91-7.6-3.28-23.71-2.46-30.4-3.66-23.81-4.25-19.62,14.12-31.07,19.52-23,10.88-1.82,20.24-6.22,37.79-17.94,71.86-85.88,264.37-91,282.17,9.06,17.77,43,27.41,46.36,22.91S588.33,1135.07,651.1,1001.22Z"/><path class="cls-7" d="M398,503.9s-40.49,98.86-58.08,238.74c0,0-4,22.85-28.07,20.6-25.46-2.43-23-25.07-23-25.07,0-.53,0-1.07.06-1.61C296.05,604,335,498.64,358.64,484.68S402.1,484.51,398,503.9Z"/><path class="cls-7" d="M303.1,720.2C441.49,690.28,541.89,650,541.89,650l13.77,19S452.39,729.73,314.39,770.17c0,0-16.73,4-24.09-20.71-6.92-23.37,11.39-29,11.39-29C302.16,720.43,302.64,720.32,303.1,720.2Z"/><path class="cls-7" d="M532.27,667.42c6.08.61,17.31,5.9,23.39,1.56,2.47-1.78,9.39-7.8,14.3-9.92,13.32-5.72,21.54-3,27.93-2.78,3.25-4.88-6-7.41-13-10s4.62-9.09,18.78-10.75,19.75,6.57,21.72,2.93c1.12-2-6.11-19.43-39.75-13.83-24.39,4-34.36,18.4-43.71,25.36C528.41,660,525.94,666.79,532.27,667.42Z"/><path class="cls-70" d="M497.41,663.56l10.28-4.42s4.55,2,9.48,15,3.36,16.75,3.36,16.75l-14.72,6S491.46,680.32,497.41,663.56Z"/><path class="cls-71" d="M497.41,663.56s-3.33-4.42-42.16,8.64c-25.28,8.5-105.36,32.12-105.36,32.12L355,679.43c6.39-26.9,26.36-105.86,52.69-160.33,30.41-62.92-52-63.88-77.89-21.23s-44.44,171.78-51.73,225.5c-5.68,41.66,17.67,57.33,40,51.66,38.82-9.85,65.68-23.46,115.29-40.6,53-18.34,64-24.26,72.42-37.61C512.64,686,497.41,663.56,497.41,663.56Z"/><path class="cls-72" d="M371.33,479.58s127.5,57.77,159.75-12.38,20.72-152.77-33.31-169.78-128.56-7.16-140.61,62.11-5,74.32-5,74.32S274.27,387,183.86,430.76c-71.9,34.8-46.2,108.33-46.2,108.33S-16.59,625.51,1.47,790.76s289.91,185.13,376.08-21.67C430.81,641.23,319.25,550.49,371.33,479.58Z"/><path class="cls-73" d="M371.33,479.58s127.5,57.77,159.75-12.38,20.72-152.77-33.31-169.78-128.56-7.16-140.61,62.11-5,74.32-5,74.32S274.27,387,183.86,430.76c-71.9,34.8-46.2,108.33-46.2,108.33S-16.59,625.51,1.47,790.76s289.91,185.13,376.08-21.67C430.81,641.23,319.25,550.49,371.33,479.58Z"/><path class="cls-74" d="M371.33,479.58s127.5,57.77,159.75-12.38,20.72-152.77-33.31-169.78-128.56-7.16-140.61,62.11-5,74.32-5,74.32S274.27,387,183.86,430.76c-71.9,34.8-46.2,108.33-46.2,108.33S-16.59,625.51,1.47,790.76s289.91,185.13,376.08-21.67C430.81,641.23,319.25,550.49,371.33,479.58Z"/><path class="cls-75" d="M352.94,427.4s-1.95,10.91,5.22,26.44,13.9,19.28,13.9,19.28,1.05,6.86-1.1,11.17-8.47,8.95-8.47,8.95-13,.24-22.71-21.69S333,432.44,333,432.44a12.37,12.37,0,0,1,9.13-7.37C349.14,423.64,352.94,427.4,352.94,427.4Z"/><path class="cls-76" d="M306.58,785.42c-47.91-3.68-75.59-42.79-73.06,5-44.36,102.6,34.94,170.14,67.75,176.23,60.84,11.3,225.36-1.22,333.72,1.73l8.34-89C561.25,851.93,306.58,785.42,306.58,785.42Z"/><path class="cls-10" d="M741.6,1285.3s-10.57,40.84-1.19,46.59c11.2,6.86,117.53,13.9,123.55,4.79,6.6-10-.66-19-65.22-52.06C771.49,1270.68,750.27,1265.62,741.6,1285.3Z"/><path class="cls-9" d="M749.1,1291.42c-20.55-52.15-48.55-137.19-48.88-138L725,1143.24c1.34,3.3,29.58,88,52.58,142.51,0,0,78.05,31.29,76.3,35.88-1.13,2.9-28.25-6.92-60.16-14.15C782.24,1304.9,748.66,1299.31,749.1,1291.42Z"/><path class="cls-77" d="M702.61,949.78c-5.67-25.47-21.44-55.93-59.28-70.38-4.47-1.72-16.64-4.32-22.66-1.16-21.43,11.22-22.81,37-28.54,48.28-11.53,22.69,11,17.11,18.22,33.69C640.16,1028,716.19,1233,723,1250.17c18.05,8.5,50.78-4.66,50.69-10.27S735,1094,702.61,949.78Z"/><path class="cls-78" d="M414.16,476.17S447,478.22,426.81,574c-27,128.2-13.42,163.94,1.82,240.67-29.83,28.74-87.74,38.55-150.19,37.2-34.89-.73-60.38-17.61-57.92-31.82,47.2-272.34,115.61-362.18,156.65-369.41S414.16,476.17,414.16,476.17Z"/><path class="cls-9" d="M484.3,373.17a108,108,0,0,1-17.72,19.31c-.52-7.3-3.37-16.31-14.5-16.31-14.91,0-12.84,20.45-9,30.95-14.71,6.26-25.71,6.16-25.71,6.16s-21.34,34.16-24,41.1,28.23,36.37,30.11,31.5,10.64-22.2,14.34-26.48,23.38,41.77,56.67,18,40.63-105.67,40.63-105.67C518,381.93,499.49,367.31,484.3,373.17Z"/><path class="cls-79" d="M422.67,486.42s-61.25,162.76-55.75,272.86,18.46,182,18.46,182-50.1,25.75-118,19.94-74.93-11.8-74.93-11.8,23-183.47,56-290.23,81.5-190.77,113-204.52,46.41-1.7,51.57,10.59S422.67,486.42,422.67,486.42Z"/><path class="cls-7" d="M395.53,496.28s-1.68,106.81,32.88,243.48c0,0,4.58,22.75-18.63,29.42-24.61,7-30.53-15-30.53-15-.2-.5-.37-1-.54-1.53-41.65-126.11-43.72-238.36-26.79-260S392.35,476.7,395.53,496.28Z"/><path class="cls-7" d="M398.11,719.71C539.66,716,645.8,695.07,645.8,695.07l10,21.27S543,756.84,399.94,770.92c0,0-17.2.82-19.83-24.83-2.45-24.25,16.56-26.33,16.56-26.33A13.67,13.67,0,0,0,398.11,719.71Z"/><path class="cls-7" d="M633.1,710.46c5.87,1.74,15.92,9,22.7,5.88,2.75-1.28,10.67-5.91,15.89-7.08,14.16-3.14,21.72,1.08,28,2.45,4.09-4.18-4.53-8.39-10.95-12.28s6.23-8.08,20.45-7.08,18.19,10.13,20.78,6.93c1.48-1.8-2.38-20.22-36.48-21-24.71-.58-37.18,11.7-47.66,16.78C630.69,702.42,627,708.67,633.1,710.46Z"/><path class="cls-80" d="M599.56,700.18l10.93-2.42s4.09,2.78,6.54,16.45.19,17.1.19,17.1l-15.58,3.12S590.6,715.56,599.56,700.18Z"/><path class="cls-81" d="M599.14,699s-7.2-5.55-32.31-.81-32.2,5.7-78.91,11.29c-27.07,3.25-58.56,1.66-58.56,1.66L421.91,674c-4.64-27.25-17.14-107.73-14.2-168.16,3.35-69.79-72.82-38.47-80,10.92s16.39,162,28.09,215c3.59,16.25,12.09,38,33.75,45.86,23.19,8.39,69.75-6.64,121.25-16.7s83.06-13,91-23.08S599.14,699,599.14,699Z"/><path class="cls-82" d="M390.92,454.87s7.18-12,7.58-13.5,9.67,14.5,17.67,22.5,8.5,10.11,8.25,15.12-1.75,7.43-1.75,7.43-3.7,1-12.62-7.43C396.17,465.87,390.92,454.87,390.92,454.87Z"/><path class="cls-83" d="M263.41,822.82a8.34,8.34,0,0,0-7.64,8.58l2.08,49.36a18.38,18.38,0,0,0,6.87,12.59l36.06,25.46a9.36,9.36,0,0,0,11.94-1.3l24.59-26.86a20.47,20.47,0,0,0,4.61-13.86l-5.09-51.42a8.25,8.25,0,0,0-8.77-7.36Z"/><path class="cls-84" d="M192.42,929s32.68,14.67,93.68,13,99.32-19,99.32-19l3.68,19.14S357.42,963.7,286.42,965.7s-97-14-97-14Z"/><path class="cls-85" d="M192.42,929s32.68,14.67,93.68,13,99.32-19,99.32-19l3.68,19.14S357.42,963.7,286.42,965.7s-97-14-97-14Z"/><path class="cls-33" d="M476.49,1018.88h-288c-17.77,0-34-7.44-44.46-20.4s-14.37-30.36-10.65-47.74c.29-1.34,28.54-134.21,26.08-188.78-5.61-123.36-36.52-175.39-36.83-175.9-8.74-13.8-27.11-27.39-36.44-29.32l-30.61-6.38a24,24,0,0,1,9.8-47L96,509.74c23.09,4.79,52,26.65,67.34,50.82,1.55,2.45,37.83,61.3,44.11,199.22,2.75,60.72-25.88,195.3-27.1,201-.67,3.18-.31,5.85,1,7.52s3.89,2.58,7.14,2.58h288a24,24,0,0,1,0,48Z"/><path class="cls-33" d="M441.53,1298.27l-101-26a38.7,38.7,0,0,0-16.11,0l-101,26a11.31,11.31,0,0,0-8,10.38v1.65a8.33,8.33,0,0,0,8.31,8.31H441.28a8.34,8.34,0,0,0,8.32-8.31v-1.65A11.32,11.32,0,0,0,441.53,1298.27Z"/><path class="cls-33" d="M355.77,1288.49c0,13.2-10.49,24-23.28,24s-23.28-10.8-23.28-24v-141.4c0-13.2,10.46-24,23.28-24s23.28,10.8,23.28,24Z"/><path class="cls-86" d="M355.77,1288.49c0,13.2-10.49,24-23.28,24s-23.28-10.8-23.28-24v-141.4c0-13.2,10.46-24,23.28-24s23.28,10.8,23.28,24Z"/><rect class="cls-33" x="293.21" y="1018.88" width="78.56" height="140.95"/><rect class="cls-87" x="293.21" y="1018.88" width="78.56" height="140.95"/><circle class="cls-88" cx="332.49" cy="1290.4" r="13.25"/><path class="cls-33" d="M246.27,1316.15a24.45,24.45,0,1,0-24.44,24.45A24.43,24.43,0,0,0,246.27,1316.15Z"/><path class="cls-89" d="M246.27,1316.15a24.45,24.45,0,1,0-24.44,24.45A24.43,24.43,0,0,0,246.27,1316.15Z"/><path class="cls-89" d="M246.27,1316.15a24.45,24.45,0,1,0-24.44,24.45A24.43,24.43,0,0,0,246.27,1316.15Z"/><path class="cls-38" d="M232.27,1316.15a10.45,10.45,0,1,0-10.44,10.45A10.43,10.43,0,0,0,232.27,1316.15Z"/><path class="cls-33" d="M467.6,1316.15a24.46,24.46,0,1,0-24.46,24.45A24.44,24.44,0,0,0,467.6,1316.15Z"/><path class="cls-90" d="M467.6,1316.15a24.46,24.46,0,1,0-24.46,24.45A24.44,24.44,0,0,0,467.6,1316.15Z"/><path class="cls-90" d="M467.6,1316.15a24.46,24.46,0,1,0-24.46,24.45A24.44,24.44,0,0,0,467.6,1316.15Z"/><path class="cls-38" d="M453.6,1316.15a10.46,10.46,0,1,0-10.46,10.45A10.45,10.45,0,0,0,453.6,1316.15Z"/><rect class="cls-33" x="325.69" y="1274.62" width="13.58" height="49.48" rx="2"/><rect class="cls-91" x="327.69" y="1291.71" width="9.58" height="49.48" rx="2"/><path class="cls-33" d="M1831.39,1133.14l.75.42c.82.47-1.12,1.14-4.26,1.54-.07-.29-33.13-5-33.44,4.74-.08,11.94,17.36,33.31,33.27,50.71h231.87c-1.75-26.94-8.45-46.56-18.06-51.49-11.41-6.1-32.74,31.86-33,31.53-1.83,3.05-3.33,2-3.35-2.2,2.55.89,0-114-25.86-124.15-10.31-4.25-22,27.15-22.18,27-2.11,2.49-3.83,3.64-3.75,2.58a7.23,7.23,0,0,1,0-1c2.11-52.6-21.47-102.45-43.83-106.82-12.28-2.53-23.8,22.13-23.89,22-1.47,3-5.31,3.31-8.56.76.72-1.53-72.72-52.12-87.27-37.65-12.22,12.87,14.85,89.39,13.22,89.41,1,3.51-.86,6.78-4,7.28,0-.13-25.67,4.42-28.5,15.38C1765.53,1082.76,1792.75,1110.15,1831.39,1133.14Z"/><path class="cls-92" d="M1935.05,1159.81c48.41-43.61,48.16-95.91,46.23-114.53a11.64,11.64,0,0,0-2-1,6,6,0,0,0-5.67.83c1.83,15.67,3.35,65.19-41.92,107.34a736.94,736.94,0,0,0-44.73-82.53c28.89-38.82,28.53-82.34,26.29-102.71a18.29,18.29,0,0,0-3.7-1.19,9,9,0,0,0-4.14.16c2.08,17.82,3.36,59.68-22.86,96.82-38.95-60.42-75.89-97.34-92.2-112.25-.16.14-.36.25-.52.39-1.42,1.5-2.3,3.89-2.76,6.9,19.2,17.78,62.62,62.25,105.45,135.64-56-.73-100.7-20.87-121.38-32.08a8,8,0,0,0-.64,1.61,19.9,19.9,0,0,0-.45,6.56c22.66,12.08,68,31.59,125.39,31.59h1.47a743.5,743.5,0,0,1,35.66,71.58c-81.35-3.19-122.49-27.39-135.54-36.79a4.53,4.53,0,0,0-2.62,3.74,16.5,16.5,0,0,0,.66,4.25c16.34,11.27,59.11,34,140.75,36.55,1.36,3.24,2.67,6.6,4,9.91H1948C1943.8,1180,1939.49,1169.67,1935.05,1159.81Z"/><path class="cls-93" d="M1831.39,1133.14l.75.42c.82.47-1.12,1.14-4.26,1.54-.07-.29-33.13-5-33.44,4.74-.08,11.94,17.36,33.31,33.27,50.71h231.87c-1.75-26.94-8.45-46.56-18.06-51.49-11.41-6.1-32.74,31.86-33,31.53-1.83,3.05-3.33,2-3.35-2.2,2.55.89,0-114-25.86-124.15-10.31-4.25-22,27.15-22.18,27-2.11,2.49-3.83,3.64-3.75,2.58a7.23,7.23,0,0,1,0-1c2.11-52.6-21.47-102.45-43.83-106.82-12.28-2.53-23.8,22.13-23.89,22-1.47,3-5.31,3.31-8.56.76.72-1.53-72.72-52.12-87.27-37.65-12.22,12.87,14.85,89.39,13.22,89.41,1,3.51-.86,6.78-4,7.28,0-.13-25.67,4.42-28.5,15.38C1765.53,1082.76,1792.75,1110.15,1831.39,1133.14Z"/><path class="cls-94" d="M2056.71,1190.55c1.37-3.47,2.68-7,3.9-10.49,18.19-53.67,30.08-95.74,16-105.78-8.14-5.87-35.39,14.76-35.25,15.08-2.19,1.8-3.28.91-2.36-2-1.12-1.22,28.8-65.39,21.25-83.19-3.56-7.81-28.7,7.2-28.64,7.45-2.67.76-4.47.85-4,.2l.44-.59c23.51-31.65,36.26-63,25.61-77.15-6-7.9-28.24-2.93-28.25-2.8-2.75.68-5.33-1.34-5.72-4.53-1.36.56-5.31-70.48-19.52-76.76-16.65-6.78-59,58.92-57.84,59.93-1.78,3.14-5,4.19-7.2,2.28-.05.12-17.66-15.94-26.77-9.74-16.58,11.1-18.81,59.36.67,101.17l.36.8c.39.84-1.36.49-3.92-.81-.09.21-20.14-21.23-27.06-14.32-17.5,16.93,19.26,110.71,21,109.14,1.44,3.43.56,4.74-2,2.91-.1.35-30.19-23.14-37.35-14.37-10.75,12.79,1,59.34,31.44,103.54Z"/><path class="cls-95" d="M2079.14,1076.9a12,12,0,0,0-2.56-2.62,6.64,6.64,0,0,0-4.12-1c-9.5,19.75-38,67.45-95.15,76.32-1.6-26.95-2.09-52.66-1.75-76.94,45-8.35,74-45.58,85.71-63.61a16.17,16.17,0,0,0-1.05-4.83,4.05,4.05,0,0,0-3.58-2.17c-9.59,15.29-37.67,54-80.95,62.83.62-28.77,2.41-55.43,4.84-79.65,37.6-6.46,63.57-32.78,75.27-47.14a17.75,17.75,0,0,0-2.14-4,8.77,8.77,0,0,0-2.69-2.22c-10.26,12.79-34.72,38.57-69.61,45.44,6.35-58.42,16.28-101.56,22.28-124.12a9.68,9.68,0,0,0-3.47-3.19,7.37,7.37,0,0,0-3.4-.46c-7,26-19.88,81.61-25.8,157.69-41.31-34.33-56.2-84.83-60.81-105.66a8.19,8.19,0,0,0-1.8.9,19.64,19.64,0,0,0-4.76,4.85c5.86,24.55,22.68,74.93,66.7,109-1.45,21.07-2.36,43.56-2.44,67.38-53.92-27.07-76.89-74.7-84.73-95.66a5.28,5.28,0,0,0-4.72,1.26,11.61,11.61,0,0,0-1.94,2.66c8.92,23.26,33.94,73.07,91.42,100.33.11,23.76,1,48.71,3,74.75-63-18-95.63-63.38-106.69-82a5.6,5.6,0,0,0-4,1.89,13,13,0,0,0-1.83,3c12.46,20.54,47.15,67.34,113.22,85.15.43,5.08.93,10.21,1.43,15.37h7.65c-1.11-11.28-2.09-22.45-2.83-33.36C2038.31,1148.14,2068.72,1098.3,2079.14,1076.9Z"/><path class="cls-96" d="M2056.71,1190.55c1.37-3.47,2.68-7,3.9-10.49,18.19-53.67,30.08-95.74,16-105.78-8.14-5.87-35.39,14.76-35.25,15.08-2.19,1.8-3.28.91-2.36-2-1.12-1.22,28.8-65.39,21.25-83.19-3.56-7.81-28.7,7.2-28.64,7.45-2.67.76-4.47.85-4,.2l.44-.59c23.51-31.65,36.26-63,25.61-77.15-6-7.9-28.24-2.93-28.25-2.8-2.75.68-5.33-1.34-5.72-4.53-1.36.56-5.31-70.48-19.52-76.76-16.65-6.78-59,58.92-57.84,59.93-1.78,3.14-5,4.19-7.2,2.28-.05.12-17.66-15.94-26.77-9.74-16.58,11.1-18.81,59.36.67,101.17l.36.8c.39.84-1.36.49-3.92-.81-.09.21-20.14-21.23-27.06-14.32-17.5,16.93,19.26,110.71,21,109.14,1.44,3.43.56,4.74-2,2.91-.1.35-30.19-23.14-37.35-14.37-10.75,12.79,1,59.34,31.44,103.54Z"/><path class="cls-97" d="M2125.44,1190.55c12.61-17.24,18.92-30.6,14.3-38.06s-32.78,0-32.78.28c-2.33.69-2.88-.37-1.22-2.35-.49-1.32,44.26-42.07,44.18-58.59-.25-7.31-25-3.78-25-3.55-2.38-.31-3.82-.81-3.21-1.15l.55-.33c29-17.22,49.34-37.74,45.61-52.41-2.14-8.21-21.33-11.62-21.37-11.51-2.4-.39-3.75-2.82-3-5.46-1.25,0,19-57.33,9.87-67-10.89-10.84-65.89,27-65.34,28.19-2.46,1.91-5.33,1.67-6.43-.55-.07.07-8.7-18.4-17.9-16.5-16.75,3.26-34.41,40.6-32.81,80a4.11,4.11,0,0,1,0,.74c.05.8-1.22-.07-2.81-1.93-.14.13-8.89-23.36-16.63-20.2-19.37,7.58-21.26,93.67-19.36,93,0,3.16-1.12,3.92-2.5,1.65-.2.24-16.18-28.19-24.73-23.64-13.36,6.89-19.37,51.61-7.62,99.33Z"/><path class="cls-98" d="M2167.83,1034.39a7.26,7.26,0,0,0-1-2.06c-14.47,10-47.17,29.63-97.41,44,32.64-68.92,70.89-111.51,84.29-125.24-.15-.18-.22-.46-.38-.61-1.67-1.67-4.47-2.08-7.86-1.75-14.34,15.19-45.55,51.53-74.47,107.41-11.42-39-6.92-76.7-3.67-94.25a7.26,7.26,0,0,0-3.67-.27,16.92,16.92,0,0,0-4.38,1.68c-3.59,20.49-7.5,61,6.83,102.54q-3.17,6.4-6.25,13.13c-.36.09-.69.2-1,.29l.31,1.27c-5.09,11.19-10,23-14.65,35.48-27.52-25.15-30.83-73.79-30.82-95.94a3.86,3.86,0,0,0-2.25.16,12.86,12.86,0,0,0-5.37,4.6c.42,25.59,5.48,73.61,35.64,98.77-5.75,16.16-11,33.38-15.52,51.56-45.82-23-54.87-65.65-56.64-83.72a5.26,5.26,0,0,0-4.7-.2,12,12,0,0,0-2.62,2c2.4,20.38,13.23,65.85,62.1,89.53-.6,2.58-1.14,5.22-1.71,7.84h7.79c3.77-17,8.14-33.22,13-48.52,50.92-6.54,87.87-30.57,104.87-43.78a17.55,17.55,0,0,0,1.61-6.42,3.45,3.45,0,0,0-2.18-2.92c-13.44,11-50.22,37.41-101.58,45,5.87-17.35,12.33-33.58,19.11-48.62,51.56-13.86,85.79-33.28,102.72-44.54A15.43,15.43,0,0,0,2167.83,1034.39Z"/><path class="cls-99" d="M2125.44,1190.55c12.61-17.24,18.92-30.6,14.3-38.06s-32.78,0-32.78.28c-2.33.69-2.88-.37-1.22-2.35-.49-1.32,44.26-42.07,44.18-58.59-.25-7.31-25-3.78-25-3.55-2.38-.31-3.82-.81-3.21-1.15l.55-.33c29-17.22,49.34-37.74,45.61-52.41-2.14-8.21-21.33-11.62-21.37-11.51-2.4-.39-3.75-2.82-3-5.46-1.25,0,19-57.33,9.87-67-10.89-10.84-65.89,27-65.34,28.19-2.46,1.91-5.33,1.67-6.43-.55-.07.07-8.7-18.4-17.9-16.5-16.75,3.26-34.41,40.6-32.81,80a4.11,4.11,0,0,1,0,.74c.05.8-1.22-.07-2.81-1.93-.14.13-8.89-23.36-16.63-20.2-19.37,7.58-21.26,93.67-19.36,93,0,3.16-1.12,3.92-2.5,1.65-.2.24-16.18-28.19-24.73-23.64-13.36,6.89-19.37,51.61-7.62,99.33Z"/><path class="cls-100" d="M2168.22,1037.48a14.37,14.37,0,0,0-.41-3.09,7.26,7.26,0,0,0-1-2.06s-.06,0-.07.06c-4.43-6.73-20.25-9.61-20.3-9.51-2.39-.39-3.75-2.82-3-5.46-1.23,0,18.31-55.35,10.25-66.35h0a5.25,5.25,0,0,0-.38-.61,5.68,5.68,0,0,0-2.12-1.25c-.3-.11-.63-.22-1-.31a9.92,9.92,0,0,0-1.49-.2c-16.83-1.78-61.28,28.92-60.78,29.95-2.45,1.91-5.33,1.67-6.42-.55-.08.07-6.53-13.74-14.24-16.23h0a7.46,7.46,0,0,0-1.75-.36l-.07,0a7.73,7.73,0,0,0-1.85.11,12.07,12.07,0,0,0-2.43.79,16.64,16.64,0,0,0-1.83.85l-.11,0h0a26.94,26.94,0,0,0-6.46,5c5.52-14.51,6.44-26.75.83-34.2-6-7.9-28.23-2.93-28.25-2.8-2.75.68-5.33-1.34-5.72-4.53-1.23.51-4.67-58.46-16-73.57h0a12.78,12.78,0,0,0-1.49-1.71,6.78,6.78,0,0,0-2-1.48c-16.66-6.78-59,58.92-57.85,59.93-1.78,3.14-5,4.19-7.2,2.28,0,.12-15.53-14-25-10.64h0a8.12,8.12,0,0,0-1.79.9,16.84,16.84,0,0,0-2.54,2.16c-10.29,10.27-13.65,36.86-7.7,65.81-7.14,6.53-12.37,17.61-12.44,17.53-.12.25-.34.38-.5.59a11.2,11.2,0,0,0-2.06-.5h-.06a6.47,6.47,0,0,0-2.25.07l-.45.1a4.6,4.6,0,0,0-2,1.09l-.06.09a8.11,8.11,0,0,1-1.22-.67c.7-1.51-71.08-51-86.69-38l-.06-.06c-.15.14-.36.25-.51.39a9.33,9.33,0,0,0-1.77,3c-.23.62-.37,1.42-.55,2.14s-.34,1.11-.45,1.77l0,0c-3.53,22.79,17.39,82.46,16,82.48,1,3.51-.85,6.78-4,7.28,0-.13-25.67,4.42-28.5,15.38a16.35,16.35,0,0,0-.5,3.28,20.31,20.31,0,0,0,0,3.21v.07h0c1.49,18.86,26.82,42.88,61.32,63.41l.75.42c.81.47-1.13,1.14-4.27,1.54,0-.24-23-3.55-30.81,1h0a6.09,6.09,0,0,0-1.7,1.44,2.61,2.61,0,0,0-.22.27,3.84,3.84,0,0,0-.71,2c-.07,11.94,17.36,33.31,33.27,50.71h297.73c12.61-17.24,18.93-30.6,14.3-38.06-4.48-7.32-32.78,0-32.78.28-2.33.69-2.88-.37-1.22-2.35-.45-1.24,39.28-37.55,43.74-55.53a12.12,12.12,0,0,0,.45-3.06,2.86,2.86,0,0,0-.58-1.55,2.69,2.69,0,0,0-.22-.28c-4.12-4.79-24.23-1.93-24.25-1.72-2.37-.31-3.81-.81-3.2-1.15l.55-.33c26.84-16,46.26-34.74,46-49.08C2168.21,1037.64,2168.22,1037.56,2168.22,1037.48Zm-134.76-27a19.38,19.38,0,0,0-1.9,1.2c-2.67.76-4.46.85-4,.2l.43-.59c2.88-3.86,5.58-7.72,8.1-11.54C2035.1,1003.15,2034.22,1006.75,2033.46,1010.45Z"/><path class="cls-101" d="M2097.94,1319.33c-5,12.23-19.86,22.23-33.06,22.23h-170c-13.21,0-28.08-10-33.07-22.23l-43.43-106.55c-5-12.23,1.73-22.23,14.93-22.23h293.16c13.2,0,19.92,10,14.94,22.23Z"/><path class="cls-102" d="M2097.94,1319.33l43.44-106.55c5-12.23-1.74-22.23-14.94-22.23H1923.8c-13.2,0-19.92,10-14.94,22.23l43.44,106.55c5,12.23,19.86,22.23,33.06,22.23h79.52C2078.08,1341.56,2093,1331.56,2097.94,1319.33Z"/><path class="cls-103" d="M2097.94,1319.33c-5,12.23-19.86,22.23-33.06,22.23h-170c-13.21,0-28.08-10-33.07-22.23l-43.43-106.55c-5-12.23,1.73-22.23,14.93-22.23h293.16c13.2,0,19.92,10,14.94,22.23Z"/><path class="cls-104" d="M1062.08,1091.92l-117.31,39.39c-15-25.14-9.63-76.93,18.36-162.3,30.06-93.3,92.9-151.48,114.81-139.52,20.5,10.9,3.8,70.75-19.7,145.09,52.09-46.59,106.26-63.51,118.56-48.36C1191.67,944.12,1142.38,996.24,1062.08,1091.92Z"/><path class="cls-105" d="M1011.49,990c19.53-8.28,37.76-20.56,51.75-31.36q2.13-6.92,4.17-13.61c-13.06,10.85-32.53,25.33-53.56,35.21,19.46-78.31,52.48-133.48,63.75-150.81a15.06,15.06,0,0,0-8.74-1.19c-9.87,15.64-29.84,50.17-47.11,98.36a221.38,221.38,0,0,1-18.22-40.89c-1.87,2.75-3.75,5.5-5.59,8.42a217.34,217.34,0,0,0,20.41,42.22c-16.47,48.83-29.46,110.29-27,179.35l8-2.68A485.35,485.35,0,0,1,1011.49,990Zm165.31-63.74a11.89,11.89,0,0,0-3-2.54,455.09,455.09,0,0,0-66.44,50.11,147.44,147.44,0,0,1,4.19-36.94q-4.62,2.46-9.39,5.29a159.15,159.15,0,0,0-2.57,38.86c-33.14,31.42-68.47,74.48-90.75,128.78l10.08-3.39c43.69-100,132.34-159.74,159.88-176.41A11.3,11.3,0,0,0,1176.8,926.22Z"/><path class="cls-106" d="M1062.08,1091.92l-117.31,39.39c-15-25.14-9.63-76.93,18.36-162.3,30.06-93.3,92.9-151.48,114.81-139.52,20.5,10.9,3.8,70.75-19.7,145.09,52.09-46.59,106.26-63.51,118.56-48.36C1191.67,944.12,1142.38,996.24,1062.08,1091.92Z"/><path class="cls-104" d="M880.6,1111.45,994.41,1127c9.33-25.53-4.58-71.83-44.91-144.82-43.62-79.86-111-122-128.92-107.29-16.81,13.5,8.81,65.16,43.14,128.88-55.59-33.43-107.94-39.45-116.53-23.52C736.74,999.16,790.75,1038.12,880.6,1111.45Z"/><path class="cls-105" d="M898.08,965.79c6.25-10.65,10.3-27.79,12.48-39.38-2.26-2.57-4.51-5.17-6.79-7.58-1.5,9.12-5,27.2-10.6,39.15a628.52,628.52,0,0,0-65.62-85.69,13.47,13.47,0,0,0-7,2.59,10.12,10.12,0,0,0-.75.85,578,578,0,0,1,39.23,47A175,175,0,0,1,823,920.55q1.59,4.2,3.49,8.67a182.93,182.93,0,0,0,25,1.74c4.19,0,8.64-.19,13.22-.55a603.85,603.85,0,0,1,41.34,64.83A192,192,0,0,1,854,985.53c1.76,3.32,3.54,6.69,5.37,10.11a207.35,207.35,0,0,0,51.06,7.76c18.49,35.15,34.43,75.31,42.05,117.87l8.31,1.13C950.72,1063.56,924.88,1009.17,898.08,965.79ZM802.21,1003c.67-8.92-.85-19.15-2.43-26.84-2.95-.76-5.84-1.42-8.62-2,1.5,6.5,3.31,16.23,3.2,24.92a485.49,485.49,0,0,0-46.45-19.78c-.22.32-.53.59-.72.93a11,11,0,0,0-1,7,498,498,0,0,1,80.49,38.88c-11.86,5.65-26.41,8.69-37.8,10.33,2.6,2.22,5.22,4.47,8,6.82,12.18-2.17,26.36-5.89,37.68-12.27,33.71,21.35,68.25,50.07,90.11,86.43l10.07,1.38C904.52,1064,847.3,1026,802.21,1003Z"/><path class="cls-107" d="M880.6,1111.45,994.41,1127c9.33-25.53-4.58-71.83-44.91-144.82-43.62-79.86-111-122-128.92-107.29-16.81,13.5,8.81,65.16,43.14,128.88-55.59-33.43-107.94-39.45-116.53-23.52C736.74,999.16,790.75,1038.12,880.6,1111.45Z"/><path class="cls-108" d="M1075.11,1190.55c-5.84-29.55-17.08-66-34.06-110-40.91-107.59-118.13-172-143.06-156.66-23.39,14-.22,83.19,31.86,168.94C865.94,1041.34,827.47,1046.65,821,1061c-7.54,16.82,4.75,51.69,74.66,129.53Z"/><path class="cls-109" d="M1061.41,1138.32c-1-3.28-2.1-6.59-3.2-10-6.43,10.78-18.47,26.64-38.47,37.63A390.9,390.9,0,0,0,998,1080.84l.64.57a176.07,176.07,0,0,0,25.66-38.86q-2.29-4.59-4.69-9a174.67,174.67,0,0,1-24.56,39.71,462.62,462.62,0,0,0-37.64-73.83c5.64-12.86,8.87-27,10.75-38.53-2.38-2.51-4.72-4.88-7.06-7.16-1.41,10.45-4.05,24.45-9,37.43a490.76,490.76,0,0,0-53.2-67.75c-.31.16-.66.28-1,.46a16.05,16.05,0,0,0-4.93,5,485.83,485.83,0,0,1,73.58,102.32,271.45,271.45,0,0,1-59.37-1.34c.94,2.79,1.9,5.64,2.89,8.5a283.69,283.69,0,0,0,33,2,264.27,264.27,0,0,0,27.51-1.46c21.61,42.17,39.41,93.63,43.41,151.73h8.14c-.37-5.41-.84-10.79-1.44-16.1A109.13,109.13,0,0,0,1061.41,1138.32ZM882.06,1093.5a164,164,0,0,0,1.43-31c-2.85-1.37-5.6-2.63-8.25-3.73a161.49,161.49,0,0,1-.57,29.51,485,485,0,0,0-51.2-30.71A12.52,12.52,0,0,0,821,1061a21,21,0,0,0-1.23,3.74c16.66,8.72,57.05,31.42,92.47,63.78a552.19,552.19,0,0,1-60.41,9.08c1.78,2.41,3.7,4.92,5.66,7.47a554.49,554.49,0,0,0,61.83-9.88c16.87,16.41,32,35,42.2,55.34h9C952,1150.58,915.22,1117.27,882.06,1093.5Z"/><path class="cls-110" d="M1075.11,1190.55c-5.84-29.55-17.08-66-34.06-110-40.91-107.59-118.13-172-143.06-156.66-23.39,14-.22,83.19,31.86,168.94C865.94,1041.34,827.47,1046.65,821,1061c-7.54,16.82,4.75,51.69,74.66,129.53Z"/><path class="cls-111" d="M1075.11,1190.55c82-87.84,119.75-135.74,106.1-154-11.5-15.75-66.47-1.64-120.9,42.19,27.32-73,47.07-131.92,27.15-143.86-21.24-13.08-87,41.78-121.83,133.4-20.53,53.25-31.24,93.38-32.83,122.26Z"/><path class="cls-112" d="M1094,1095.42c26.65-21.59,57.73-42.47,89.25-54.68a13.41,13.41,0,0,0-2-4.18,11.55,11.55,0,0,0-2.61-2.56,291.2,291.2,0,0,0-49.39,25.73,53.59,53.59,0,0,1,4.29-23.24c-3.15,1.1-6.4,2.33-9.75,3.72a57.56,57.56,0,0,0-2,24.5,516.39,516.39,0,0,0-57,45c.44-17.45,9.78-36.74,14.06-44.69-4.51,3.11-9.06,6.45-13.62,10-4.91,11.77-9.7,27.51-8.11,41.73-19.36,18.07-34.06,34-41.59,42.47-2-14.33-4.05-47.65,7.32-96.54.35-1.48.8-2.93,1.18-4.41a133.62,133.62,0,0,0,48.18-11.76c1.3-3.65,2.57-7.24,3.78-10.76a128.64,128.64,0,0,1-49.78,14.4c7.6-25,19.91-48.79,31.89-68.34,4.61.4,9,.62,13.07.62a130,130,0,0,0,21.15-1.67c.64-2.94,1.21-5.78,1.66-8.5a127.86,127.86,0,0,1-31,1.84,406.94,406.94,0,0,1,27-37.18,12.74,12.74,0,0,0-2.39-2,12.9,12.9,0,0,0-5-1.68,408,408,0,0,0-44.08,66.69,124.59,124.59,0,0,1-11.61-32.42c-2.17,2.33-4.34,4.73-6.53,7.28a125.43,125.43,0,0,0,13.86,33.74,262.36,262.36,0,0,0-17,44.28,3.85,3.85,0,0,0-.23.84c-.66,2.41-1.36,4.8-1.92,7.23-2.38,10.18-4.11,19.59-5.47,28.4-17.74-13.31-29.36-30.21-35.53-40.84-1.35,3-2.63,6-3.93,9.06,7.5,11.88,20,28,38.19,40.7-5.7,45,.52,69.73.86,71a4,4,0,0,0,3,2.89,4.36,4.36,0,0,0,.87.09,4,4,0,0,0,3.06-1.43,646.92,646.92,0,0,1,71.71-70.16c12.45,13,35.57,16.68,52.25,17.59,2.22-2.66,4.34-5.24,6.39-7.77C1131.21,1110.07,1106.13,1107.6,1094,1095.42Z"/><path class="cls-113" d="M1075.11,1190.55c82-87.84,119.75-135.74,106.1-154-11.5-15.75-66.47-1.64-120.9,42.19,27.32-73,47.07-131.92,27.15-143.86-21.24-13.08-87,41.78-121.83,133.4-20.53,53.25-31.24,93.38-32.83,122.26Z"/><path class="cls-114" d="M1089.22,1319.33c-5,12.23-19.86,22.23-33.06,22.23H918.74c-13.21,0-28.08-10-33.07-22.23l-43.43-106.55c-5-12.23,1.73-22.23,14.93-22.23h260.54c13.2,0,19.92,10,14.93,22.23Z"/><path class="cls-115" d="M1089.22,1319.33l43.42-106.55c5-12.23-1.73-22.23-14.93-22.23H920.06c-13.2,0-19.92,10-14.93,22.23l43.42,106.55c5,12.23,19.86,22.23,33.06,22.23h74.55C1069.36,1341.56,1084.24,1331.56,1089.22,1319.33Z"/><path class="cls-116" d="M1117.71,1190.55H857.17c-13.2,0-19.92,10-14.93,22.23l43.43,106.55c5,12.23,19.86,22.23,33.07,22.23h137.42c13.2,0,28.08-10,33.06-22.23l43.42-106.55C1137.63,1200.55,1130.91,1190.55,1117.71,1190.55Z"/><path class="cls-117" d="M1142.46,1115.14c30.59-37,44.73-61.09,40.78-74.4h0a13.16,13.16,0,0,0-2-4.18c-6.83-9.35-29-8.09-57.32,3.59l-.14.06h0a232.46,232.46,0,0,0-31.7,16.23c57.67-68,92.42-108.56,86.78-126.46h0a11,11,0,0,0-2-3.76c-8.78-10.83-39-5.19-74.51,15.88,0,0,0,0-.06,0h0c-2.47,1.46-5,3-7.47,4.6-1.13-5.52-3.47-9.57-7.28-11.85a12,12,0,0,0-3.77-1.4c-3.67-.86-8.14-.4-13.27,1.36,16.22-55.17,24.21-96.49,7.5-105.36-14.23-7.78-45.79,14.25-74.39,56.18h0a0,0,0,0,0,0,0c-1.86,2.74-3.74,5.47-5.56,8.37,0,0,0,0,0,0h0a329.2,329.2,0,0,0-31.39,65.15c-23.5-24.43-45.86-37.93-60.28-37.61-.81-.89-1.63-1.87-2.46-2.74l0-.06h0c-30.1-31.86-60.35-48.56-76.24-46.55h0a16.47,16.47,0,0,0-3.66.83,10.16,10.16,0,0,0-3.25,1.75c-8.42,6.76-6.2,23.07,2.41,45.67h0c.5,1.29,1.07,2.66,1.61,4,6.95,17.4,17.31,38.17,29.39,61h0c.12.25.26.51.4.76,1.55,2.92,3.1,5.85,4.69,8.83.09.17.19.34.28.52h0c1.44,2.69,2.88,5.38,4.36,8.12-26.34-15.84-51.89-25.45-72.45-29.56a.31.31,0,0,0-.13,0h0c-21.86-4.36-38-2.42-43.23,5.14h0a8.91,8.91,0,0,0-.72.93,9.53,9.53,0,0,0-1.08,3.36c-1.78,11.16,13.89,28.12,42.75,52.89h0l1,.9c2.17,1.85,4.31,3.69,6.64,5.64a3,3,0,0,0,.33.28h0q10.77,9.06,23.54,19.41c-4.4,12.68,1.68,34.75,31.43,74.9h0l0,.06c1.66,2.23,3.42,4.55,5.22,6.88l.41.53h0c10.23,13.27,22.72,28.26,38.17,45.46h179.42c26.25-28.13,47.91-52.13,64.86-72.4h0Z"/></g></g></g></svg>