<svg width="110" height="110" viewBox="0 0 110 110" fill="none" xmlns="http://www.w3.org/2000/svg">
<path d="M109.192 46.7463C109.058 46.7504 108.922 46.7667 108.783 46.7667C101.484 46.7667 95.5667 40.8497 95.5667 33.55C95.5667 29.6094 97.3031 26.0816 100.036 23.6619C96.8253 19.0279 92.9172 14.9186 88.4683 11.4741C86.0425 14.4001 82.3825 16.2667 78.2833 16.2667C70.9837 16.2667 65.0667 10.3497 65.0667 3.05C65.0667 2.34647 65.1378 1.6592 65.2436 0.986166C61.8926 0.3477 58.438 0 54.9 0C51.362 0 47.9074 0.3477 44.5564 0.986166C44.6622 1.6592 44.7333 2.34647 44.7333 3.05C44.7333 10.3497 38.8163 16.2667 31.5167 16.2667C27.4175 16.2667 23.7575 14.4001 21.3317 11.4741C16.8828 14.9186 12.9747 19.0279 9.76407 23.6619C12.4989 26.0816 14.2333 29.6114 14.2333 33.55C14.2333 40.8497 8.31633 46.7667 1.01667 46.7667C0.8784 46.7667 0.742167 46.7504 0.607967 46.7463C0.211467 49.408 0 52.1286 0 54.9C0 58.377 0.337533 61.7727 0.955667 65.0707C0.976 65.0707 0.996333 65.0667 1.01667 65.0667C8.31633 65.0667 14.2333 70.9837 14.2333 78.2833C14.2333 81.7949 12.8547 84.9791 10.6201 87.3459C13.662 91.4878 17.2711 95.1824 21.3337 98.3259C23.7575 95.3999 27.4175 93.5333 31.5167 93.5333C38.8163 93.5333 44.7333 99.4503 44.7333 106.75C44.7333 107.454 44.6622 108.141 44.5564 108.814C47.9074 109.452 51.362 109.8 54.9 109.8C58.438 109.8 61.8926 109.452 65.2436 108.814C65.1378 108.141 65.0667 107.454 65.0667 106.75C65.0667 99.4503 70.9837 93.5333 78.2833 93.5333C82.3825 93.5333 86.0425 95.3999 88.4683 98.3259C92.5289 95.1824 96.138 91.4878 99.1819 87.3459C96.9453 84.9791 95.5667 81.7949 95.5667 78.2833C95.5667 70.9837 101.484 65.0667 108.783 65.0667C108.804 65.0667 108.824 65.0707 108.844 65.0707C109.462 61.7727 109.8 58.377 109.8 54.9C109.8 52.1286 109.589 49.408 109.192 46.7463V46.7463ZM79.2044 62.1793C76.0426 73.2407 65.8617 81.3333 53.7857 81.3333C47.2872 81.3333 41.3519 78.9747 36.7484 75.0849L31.3418 80.4915C30.8009 81.0324 30.071 81.3333 29.3085 81.3333C27.7204 81.3333 26.4333 80.0462 26.4333 78.4582V61C26.4333 59.8756 27.3422 58.9667 28.4667 58.9667H45.9249C47.5129 58.9667 48.8 60.2538 48.8 61.8418C48.8 62.6043 48.4991 63.3343 47.9582 63.8751L44.1091 67.7242C47.0412 68.6209 50.3169 69.1333 53.7857 69.1333C63.2672 69.1333 71.372 65.3778 74.6274 60.0769C75.0666 59.3591 75.8881 58.9667 76.7299 58.9667C78.1491 58.9667 79.3 60.1033 79.3 61.4433C79.3 61.6832 79.2756 61.9333 79.2044 62.1793V62.1793ZM81.3333 48.8C81.3333 49.9244 80.4244 50.8333 79.3 50.8333H61.8418C60.2538 50.8333 58.9667 49.5462 58.9667 47.9582C58.9667 47.1957 59.2676 46.4657 59.8085 45.9249L63.6576 42.0758C60.7255 41.1791 57.4498 40.6667 53.9809 40.6667C44.4995 40.6667 36.3946 44.4222 33.1393 49.7231C32.7001 50.4409 31.8786 50.8333 31.0368 50.8333C29.5911 50.8333 28.4667 49.6377 28.4667 48.2734C28.4667 48.0578 28.4992 47.8382 28.5622 47.6207C31.7241 36.5614 41.905 28.4667 53.9809 28.4667C60.4795 28.4667 66.4148 30.8253 71.0182 34.7151L76.4249 29.3085C76.9657 28.7676 77.6957 28.4667 78.4582 28.4667C80.0462 28.4667 81.3333 29.7538 81.3333 31.3418V48.8Z" fill="#29ABE2"/>
</svg>
