<svg width="122" height="122" viewBox="0 0 122 122" fill="none" xmlns="http://www.w3.org/2000/svg">
<path d="M89.4667 42.7C93.9586 42.7 97.6 39.0586 97.6 34.5667C97.6 30.0748 93.9586 26.4333 89.4667 26.4333C84.9748 26.4333 81.3334 30.0748 81.3334 34.5667C81.3334 39.0586 84.9748 42.7 89.4667 42.7Z" fill="white"/>
<path d="M79.6924 64.1578C79.4159 63.4157 79.2919 62.6267 79.3 61.8317C79.3122 60.571 79.6741 59.3429 80.3756 58.2957L88.1511 46.6935C84.2959 46.2808 80.9856 44.0624 79.056 40.9087L64.4343 55.5304C63.5376 56.4291 63.0333 57.6471 63.0333 58.9179C63.0333 60.1867 63.5376 61.4067 64.4343 62.3034L78.5761 76.4453C79.1129 76.9821 79.8266 77.2647 80.5505 77.2667C80.9795 77.2688 81.4126 77.1712 81.8152 76.9699C82.7953 76.4798 83.3667 75.5181 83.3667 74.4506C83.3667 74.1252 83.3077 73.7979 83.1877 73.4766L79.6924 64.1578Z" fill="white"/>
<path d="M99.2409 64.1578C99.5195 63.4157 99.6415 62.6267 99.6333 61.8317C99.6211 60.571 99.2592 59.3429 98.5577 58.2957L90.7822 46.6935C94.6374 46.2808 97.9477 44.0624 99.8773 40.9087L114.499 55.5304C115.396 56.4291 115.9 57.6471 115.9 58.9179C115.9 60.1867 115.396 61.4067 114.499 62.3034L100.357 76.4453C99.8204 76.9821 99.1067 77.2647 98.3828 77.2667C97.9538 77.2688 97.5207 77.1712 97.1181 76.9699C96.138 76.4798 95.5667 75.5181 95.5667 74.4506C95.5667 74.1252 95.6256 73.7979 95.7456 73.4766L99.2409 64.1578Z" fill="white"/>
<path d="M65.0667 22.3666C69.5586 22.3666 73.2 18.7252 73.2 14.2333C73.2 9.74139 69.5586 6.09998 65.0667 6.09998C60.5748 6.09998 56.9333 9.74139 56.9333 14.2333C56.9333 18.7252 60.5748 22.3666 65.0667 22.3666Z" fill="white"/>
<path d="M53.1005 16.5981L41.4943 26.7526C45.1177 28.7961 47.9725 32.0332 49.5259 35.9372L61.1383 25.7766C57.0574 24.3858 53.9464 20.9027 53.1005 16.5981Z" fill="white"/>
<path d="M85.2658 23.1251L77.0796 16.3032C76.3374 20.6444 73.3077 24.1926 69.2695 25.6749L77.4557 32.4967C78.1979 28.1576 81.2276 24.6094 85.2658 23.1251V23.1251Z" fill="white"/>
<path d="M32.5334 61.0001C29.6074 61.0001 26.8522 60.2965 24.4 59.0765V87.4334H40.6667V59.0765C38.2145 60.2965 35.4593 61.0001 32.5334 61.0001V61.0001Z" fill="white"/>
<path d="M99.6333 115.9C97.3885 115.9 95.5667 114.078 95.5667 111.833C95.5667 109.588 97.3885 107.767 99.6333 107.767H109.8C112.045 107.767 113.867 109.588 113.867 111.833C113.867 114.078 112.045 115.9 109.8 115.9H99.6333Z" fill="white"/>
<path d="M85.4 107.767H51.24L45.7561 94.0559C45.1379 92.5126 43.6434 91.5 41.9802 91.5H23.0844C21.4232 91.5 19.9266 92.5126 19.3105 94.0559L13.8266 107.767H12.2C9.95517 107.767 8.1333 109.589 8.1333 111.833C8.1333 114.078 9.95517 115.9 12.2 115.9H85.4C87.6448 115.9 89.4666 114.078 89.4666 111.833C89.4666 109.589 87.6448 107.767 85.4 107.767Z" fill="white"/>
<path d="M32.5334 28.4667C24.6725 28.4667 18.3 34.8391 18.3 42.7C18.3 50.5609 24.6725 56.9333 32.5334 56.9333C40.3942 56.9333 46.7667 50.5609 46.7667 42.7C46.7667 34.8391 40.3942 28.4667 32.5334 28.4667ZM32.5334 38.6333C30.2906 38.6333 28.4667 40.4572 28.4667 42.7C28.4667 43.8244 27.5578 44.7333 26.4334 44.7333C25.3089 44.7333 24.4 43.8244 24.4 42.7C24.4 38.2145 28.0478 34.5667 32.5334 34.5667C33.6578 34.5667 34.5667 35.4756 34.5667 36.6C34.5667 37.7244 33.6578 38.6333 32.5334 38.6333Z" fill="white"/>
<path d="M105.733 16.2666C107.979 16.2666 109.8 14.4459 109.8 12.2C109.8 9.95401 107.979 8.1333 105.733 8.1333C103.487 8.1333 101.667 9.95401 101.667 12.2C101.667 14.4459 103.487 16.2666 105.733 16.2666Z" fill="white"/>
<path d="M105.733 30.5C107.979 30.5 109.8 28.6793 109.8 26.4334C109.8 24.1874 107.979 22.3667 105.733 22.3667C103.487 22.3667 101.667 24.1874 101.667 26.4334C101.667 28.6793 103.487 30.5 105.733 30.5Z" fill="white"/>
<path d="M12.2 65.0667C14.4459 65.0667 16.2666 63.246 16.2666 61C16.2666 58.7541 14.4459 56.9333 12.2 56.9333C9.95401 56.9333 8.1333 58.7541 8.1333 61C8.1333 63.246 9.95401 65.0667 12.2 65.0667Z" fill="#CE4912"/>
<path d="M12.2 79.3C14.4459 79.3 16.2666 77.4792 16.2666 75.2333C16.2666 72.9873 14.4459 71.1666 12.2 71.1666C9.95401 71.1666 8.1333 72.9873 8.1333 75.2333C8.1333 77.4792 9.95401 79.3 12.2 79.3Z" fill="#CE4912"/>
</svg>
