<svg width="122" height="122" viewBox="0 0 122 122" fill="none" xmlns="http://www.w3.org/2000/svg">
<path d="M36.6 12.2L8.1333 26.4333V95.5667L36.6 109.8V12.2Z" fill="white"/>
<path d="M75.2333 100.68V21.3195L42.7 10.1667V111.833L75.2333 100.68ZM66.0833 67.1C64.3997 67.1 63.0333 65.7336 63.0333 64.05C63.0333 62.3664 64.3997 61 66.0833 61C67.7669 61 69.1333 62.3664 69.1333 64.05C69.1333 65.7336 67.7669 67.1 66.0833 67.1ZM51.85 20.3333C52.1407 20.3333 52.4173 20.3862 52.6836 20.4635L66.917 24.5301C68.1939 24.8941 69.1333 26.0551 69.1333 27.45C69.1333 29.1336 67.7669 30.5 66.0833 30.5C65.7925 30.5 65.516 30.4471 65.2496 30.3699L51.0163 26.3032C49.7394 25.9392 48.8 24.7782 48.8 23.3833C48.8 21.6997 50.1664 20.3333 51.85 20.3333V20.3333ZM51.85 32.5333C52.1407 32.5333 52.4173 32.5862 52.6836 32.6635L66.917 36.7301C68.1939 37.0941 69.1333 38.2551 69.1333 39.65C69.1333 41.3336 67.7669 42.7 66.0833 42.7C65.7925 42.7 65.516 42.6471 65.2496 42.5699L51.0163 38.5032C49.7394 38.1392 48.8 36.9782 48.8 35.5833C48.8 33.8997 50.1664 32.5333 51.85 32.5333V32.5333ZM51.85 44.7333C52.1407 44.7333 52.4173 44.7862 52.6836 44.8635L66.917 48.9301C68.1939 49.2941 69.1333 50.4551 69.1333 51.85C69.1333 53.5336 67.7669 54.9 66.0833 54.9C65.7925 54.9 65.516 54.8471 65.2496 54.7699L51.0163 50.7032C49.7394 50.3392 48.8 49.1782 48.8 47.7833C48.8 46.0997 50.1664 44.7333 51.85 44.7333V44.7333Z" fill="white"/>
<path d="M81.3334 98.5862L113.867 87.4333V34.5667L81.3334 23.4138V98.5862ZM104.717 79.3C103.033 79.3 101.667 77.9336 101.667 76.25C101.667 74.5664 103.033 73.2 104.717 73.2C106.4 73.2 107.767 74.5664 107.767 76.25C107.767 77.9336 106.4 79.3 104.717 79.3ZM90.4834 34.5667C90.7741 34.5667 91.0507 34.6195 91.317 34.6968L105.55 38.7634C106.827 39.1274 107.767 40.2885 107.767 41.6833C107.767 43.3669 106.4 44.7333 104.717 44.7333C104.426 44.7333 104.149 44.6805 103.883 44.6032L89.6497 40.5365C88.3728 40.1726 87.4334 39.0115 87.4334 37.6167C87.4334 35.9331 88.7998 34.5667 90.4834 34.5667ZM90.4834 46.7667C90.7741 46.7667 91.0507 46.8195 91.317 46.8968L105.55 50.9634C106.827 51.3274 107.767 52.4885 107.767 53.8833C107.767 55.5669 106.4 56.9333 104.717 56.9333C104.426 56.9333 104.149 56.8805 103.883 56.8032L89.6497 52.7365C88.3728 52.3726 87.4334 51.2115 87.4334 49.8167C87.4334 48.1331 88.7998 46.7667 90.4834 46.7667ZM90.4834 58.9667C90.7741 58.9667 91.0507 59.0195 91.317 59.0968L105.55 63.1635C106.827 63.5274 107.767 64.6885 107.767 66.0833C107.767 67.7669 106.4 69.1333 104.717 69.1333C104.426 69.1333 104.149 69.0805 103.883 69.0032L89.6497 64.9365C88.3728 64.5726 87.4334 63.4115 87.4334 62.0167C87.4334 60.3331 88.7998 58.9667 90.4834 58.9667Z" fill="white"/>
</svg>
