<svg width="98" height="106" viewBox="0 0 98 106" fill="none" xmlns="http://www.w3.org/2000/svg">
<path d="M91.5 83.3667H6.1C2.73077 83.3667 0 80.6359 0 77.2667V6.1C0 2.73077 2.73077 0 6.1 0H91.5C94.8672 0 97.5797 2.73077 97.5797 6.1L97.6 77.2667C97.6 80.6359 94.8672 83.3667 91.5 83.3667ZM8.13333 69.1333H89.4667V8.13333H8.13333V69.1333Z" fill="white"/>
<path d="M54.9001 89.4666H40.6667C40.6667 89.4666 30.4818 98.0167 29.7559 98.6959C28.9629 99.438 28.4871 100.495 28.4871 101.667C28.4871 103.911 30.2886 105.733 32.5334 105.733H63.0334C65.2782 105.733 67.1001 103.911 67.1001 101.667C67.1001 100.388 66.5084 99.2469 65.5852 98.4986C64.8878 97.9374 54.9001 89.4666 54.9001 89.4666Z" fill="white"/>
</svg>
