<svg width="122" height="122" viewBox="0 0 122 122" fill="none" xmlns="http://www.w3.org/2000/svg">
<path d="M110.853 71.1667C110.461 71.1667 110.081 71.2134 109.713 71.2948C109.29 68.9137 107.22 67.1 104.717 67.1C103.415 67.1 102.242 67.6043 101.341 68.4095C100.63 66.4636 98.7772 65.0667 96.5833 65.0667C95.4344 65.0667 94.3832 65.4611 93.5333 66.1077V50.1074C93.5333 47.2221 91.3108 44.7333 88.5191 44.7333C85.7293 44.7333 83.3666 46.9842 83.3666 49.8167V69.1333L79.8998 72.6002C78.2141 74.2858 77.2666 76.5713 77.2666 78.9564V88.7774C77.2666 90.5525 77.72 92.356 78.7774 93.7631L87.4333 103.7H109.8C109.8 103.7 115.9 92.8827 115.9 76.7827C115.9 73.4623 113.391 71.1667 110.853 71.1667V71.1667Z" fill="#29ABE2"/>
<path d="M10.1666 105.733H28.4666C30.7114 105.733 32.5333 107.555 32.5333 109.8V113.867H6.09998V109.8C6.09998 107.555 7.92184 105.733 10.1666 105.733Z" fill="#29ABE2"/>
<path d="M89.4667 107.767H107.767C110.011 107.767 111.833 109.589 111.833 111.833V115.9H85.4V111.833C85.4 109.589 87.2199 107.767 89.4667 107.767Z" fill="#29ABE2"/>
<path d="M41.7199 65.0667C40.5019 65.0667 39.3958 65.4957 38.5174 66.2033L24.0604 77.0105C23.8815 77.163 23.6375 77.2667 23.3833 77.2667C22.8201 77.2667 22.3666 76.8112 22.3666 76.25C22.3666 76.2175 22.3931 76.0202 22.3931 76.0202C22.4785 75.6156 28.8469 52.7121 28.8469 52.7121L15.8112 57.0838C12.4419 58.2082 10.1666 61.364 10.1666 64.9182V101.667H28.4666C33.4076 97.9823 36.3966 93.8648 36.5512 87.2625C36.5898 85.6257 37.1388 84.0478 38.1189 82.7343L45.8171 73.0902C46.4169 72.2504 46.7666 71.2846 46.7666 70.1134C46.7666 67.3155 44.4588 65.0667 41.7199 65.0667V65.0667Z" fill="#29ABE2"/>
<path d="M75.5261 96.2031C74.0052 94.1779 73.2 91.6118 73.2 88.7774V78.9564C73.2 77.6001 73.4135 76.2764 73.81 75.0178L50.8008 69.786C50.8049 69.8979 50.8333 70.0036 50.8333 70.1134C50.8333 72.0674 50.2599 73.8629 49.1294 75.4489L48.9972 75.6278L41.299 85.2719C40.9005 85.8087 40.6382 86.5671 40.6179 87.354C40.6016 88.0616 40.506 88.696 40.4369 89.3528L75.7396 97.3804C76.0487 97.4597 76.3659 97.5126 76.6892 97.5512C76.5347 97.3804 75.6624 96.3881 75.5261 96.2031V96.2031ZM56.9333 85.4C54.6885 85.4 52.8667 83.5781 52.8667 81.3333C52.8667 79.0885 54.6885 77.2667 56.9333 77.2667C59.1781 77.2667 61 79.0885 61 81.3333C61 83.5781 59.1781 85.4 56.9333 85.4Z" fill="#29ABE2"/>
<path d="M36.0835 62.9439C37.025 62.1854 38.1453 61.6568 39.347 61.3375L50.3331 14.6583L91.0567 23.9181L87.0795 40.811C87.5553 40.7358 88.0271 40.6667 88.5191 40.6667C90.9774 40.6667 93.2039 41.6955 94.8387 43.3486L99.4239 23.8673C99.5479 23.3854 99.6333 22.8892 99.6333 22.3667C99.6333 19.5444 97.7098 17.1959 95.1071 16.4964L50.3291 6.31554C49.837 6.18947 49.3307 6.10001 48.8 6.10001C45.9676 6.10001 43.6089 8.03777 42.9216 10.6547L29.4508 67.893L36.0835 62.9439Z" fill="#29ABE2"/>
</svg>
