<svg width="106" height="98" viewBox="0 0 106 98" fill="none" xmlns="http://www.w3.org/2000/svg">
<path d="M100.853 65.1667C100.461 65.1667 100.081 65.2134 99.7125 65.2948C99.2896 62.9137 97.2196 61.1 94.7166 61.1C93.4153 61.1 92.242 61.6043 91.3413 62.4095C90.6296 60.4636 88.7772 59.0667 86.5833 59.0667C85.4344 59.0667 84.3832 59.4611 83.5333 60.1077V44.1074C83.5333 41.2221 81.3108 38.7333 78.5191 38.7333C75.7293 38.7333 73.3666 40.9842 73.3666 43.8167V63.1333L69.8998 66.6002C68.2141 68.2858 67.2666 70.5713 67.2666 72.9564V82.7774C67.2666 84.5525 67.72 86.356 68.7774 87.7631L77.4333 97.7H99.7999C99.7999 97.7 105.9 86.8827 105.9 70.7827C105.9 67.4623 103.391 65.1667 100.853 65.1667V65.1667Z" fill="white"/>
<path d="M31.7199 59.0667C30.5019 59.0667 29.3958 59.4957 28.5174 60.2033L14.0604 71.0105C13.8815 71.163 13.6375 71.2667 13.3833 71.2667C12.8201 71.2667 12.3666 70.8112 12.3666 70.25C12.3666 70.2175 12.3931 70.0203 12.3931 70.0203C12.4785 69.6156 18.8469 46.7122 18.8469 46.7122L5.81116 51.0838C2.44193 52.2083 0.166626 55.364 0.166626 58.9183V95.6667H18.4666C23.4076 91.9823 26.3966 87.8648 26.5512 81.2626C26.5898 79.6257 27.1388 78.0479 28.1189 76.7343L35.8171 67.0902C36.4169 66.2505 36.7666 65.2846 36.7666 64.1134C36.7666 61.3156 34.4588 59.0667 31.7199 59.0667V59.0667Z" fill="white"/>
<path d="M65.5261 90.2031C64.0052 88.1779 63.2 85.6118 63.2 82.7773V72.9563C63.2 71.6001 63.4135 70.2764 63.81 69.0178L40.8008 63.786C40.8049 63.8978 40.8333 64.0036 40.8333 64.1134C40.8333 66.0674 40.2599 67.8628 39.1294 69.4488L38.9972 69.6278L31.299 79.2719C30.9005 79.8087 30.6382 80.5671 30.6179 81.354C30.6016 82.0616 30.506 82.696 30.4369 83.3528L65.7396 91.3804C66.0487 91.4597 66.3659 91.5125 66.6892 91.5512C66.5347 91.3804 65.6624 90.3881 65.5261 90.2031V90.2031ZM46.9333 79.4C44.6885 79.4 42.8667 77.5781 42.8667 75.3333C42.8667 73.0885 44.6885 71.2666 46.9333 71.2666C49.1781 71.2666 51 73.0885 51 75.3333C51 77.5781 49.1781 79.4 46.9333 79.4Z" fill="white"/>
<path d="M26.0835 56.9438C27.025 56.1854 28.1453 55.6567 29.347 55.3375L40.3331 8.65828L81.0567 17.9181L77.0795 34.811C77.5553 34.7358 78.0271 34.6666 78.5191 34.6666C80.9774 34.6666 83.2039 35.6955 84.8387 37.3486L89.4239 17.8672C89.5479 17.3853 89.6333 16.8892 89.6333 16.3666C89.6333 13.5444 87.7098 11.1959 85.1071 10.4964L40.3291 0.315509C39.837 0.189442 39.3307 0.0999756 38.8 0.0999756C35.9676 0.0999756 33.6089 2.03774 32.9216 4.65464L19.4508 61.893L26.0835 56.9438Z" fill="white"/>
</svg>
