<svg width="122" height="122" viewBox="0 0 122 122" fill="none" xmlns="http://www.w3.org/2000/svg">
<path d="M87.4333 8.1333H18.3C13.8063 8.1333 10.1666 11.773 10.1666 16.2666V75.2333C10.1666 79.727 13.8063 83.3666 18.3 83.3666H61V67.1H18.3V16.2666H87.4333V38.6333H95.5666V16.2666C95.5666 11.773 91.927 8.1333 87.4333 8.1333Z" fill="#29ABE2"/>
<path d="M52.8667 22.3667C42.761 22.3667 34.5667 30.561 34.5667 40.6667C34.5667 50.7724 42.761 58.9667 52.8667 58.9667C55.7743 58.9667 58.56 58.2754 61 57.0574V48.8C61 43.2287 65.4937 38.6944 71.0426 38.6334C70.0483 29.4834 62.281 22.3667 52.8667 22.3667ZM59.9244 39.9144C59.8329 40.0038 53.2144 45.7155 52.7853 46.0632C52.2282 46.5207 51.5857 46.7667 50.813 46.7667C50.083 46.7667 49.4791 46.4922 48.9627 46.0957C48.07 45.4084 44.6967 42.6817 43.859 42.029C43.1677 41.4597 42.7 40.6057 42.7 39.65C42.7 37.9624 44.0623 36.6 45.75 36.6C46.482 36.6 47.1327 36.844 47.6613 37.271C47.885 37.4744 50.506 39.5077 50.813 39.7517C50.996 39.589 55.754 35.4817 55.9573 35.319C56.5063 34.8514 57.1773 34.5667 57.95 34.5667C59.6377 34.5667 61 35.929 61 37.6167C61 38.5317 60.5527 39.3247 59.9244 39.9144V39.9144Z" fill="#29ABE2"/>
<path d="M105.733 42.7H71.1667C67.7913 42.7 65.0667 45.4247 65.0667 48.8V97.6C65.0667 100.975 67.7913 103.7 71.1667 103.7H75.2333V91.5H71.1667V48.8H105.733V69.1333H107.767C109.251 69.1333 110.634 69.54 111.833 70.2314V48.8C111.833 45.4247 109.109 42.7 105.733 42.7Z" fill="#29ABE2"/>
<path d="M79.3 77.2667V109.8C79.3 112.045 81.1219 113.867 83.3667 113.867H107.767C110.012 113.867 111.833 112.045 111.833 109.8V77.2667C111.833 75.0219 110.012 73.2 107.767 73.2H83.3667C81.1219 73.2 79.3 75.0219 79.3 77.2667ZM105.733 103.7H85.4001V79.3H105.733V103.7Z" fill="#29ABE2"/>
<path d="M61 87.4333V101.667H36.6C34.3633 101.667 32.5293 99.853 32.5333 97.6C32.5374 95.1478 34.6317 93.5334 36.8216 93.5334H38.4707C40.809 93.5334 42.7 91.6423 42.7 89.304V87.4333H61Z" fill="#29ABE2"/>
</svg>
